/* XPM */
static char *_c2f4588a7f04437d38150b53f51ea03[] = {
/* columns rows colors chars-per-pixel */
"32 32 205 2 ",
"   c #195132",
".  c #165857",
"X  c #184D4A",
"o  c #1A704F",
"O  c #267A5B",
"+  c #105C76",
"@  c #285772",
"#  c #176A7A",
"$  c #1E696F",
"%  c #256C6F",
"&  c #347575",
"*  c #317566",
"=  c #454545",
"-  c #4B4B4B",
";  c #545454",
":  c #5B5B5B",
">  c #436F4E",
",  c #4E716A",
"<  c #626363",
"1  c #6A6A6A",
"2  c #6F7070",
"3  c #7A7B7B",
"4  c #747678",
"5  c #358C50",
"6  c #36A04F",
"7  c #288668",
"8  c #27827B",
"9  c #3C8979",
"0  c #3D9677",
"q  c #35A37E",
"w  c #4D9D73",
"e  c #4B9370",
"r  c #649A74",
"t  c #4FAD7D",
"y  c #176A86",
"u  c #297A8C",
"i  c #297A97",
"p  c #256183",
"a  c #7F7F80",
"s  c #6A7683",
"d  c #4075AC",
"f  c #3D848A",
"g  c #38868D",
"h  c #278399",
"j  c #3C8B95",
"k  c #3B869A",
"l  c #34959B",
"z  c #318F8B",
"x  c #3CB28E",
"c  c #37A894",
"v  c #2EAC8A",
"b  c #2E89A6",
"n  c #378AA6",
"m  c #379CA8",
"M  c #3193B2",
"N  c #37A6A6",
"B  c #3EA9B7",
"V  c #3DB3A7",
"C  c #478E96",
"Z  c #48989A",
"A  c #599C93",
"S  c #4C878A",
"D  c #71808E",
"F  c #669983",
"G  c #759C88",
"H  c #788B95",
"J  c #6A9A97",
"K  c #58AA8C",
"L  c #4BB78E",
"P  c #53A495",
"I  c #49B199",
"U  c #50AD8F",
"Y  c #66B78A",
"T  c #66BA99",
"R  c #6CA68E",
"E  c #4C90B2",
"W  c #4AA4A4",
"Q  c #55ABA7",
"!  c #54B7A0",
"~  c #44AAB6",
"^  c #59A8B6",
"/  c #4DB1BC",
"(  c #4EB5B2",
")  c #51BAB3",
"_  c #55B7BE",
"`  c #65B6A4",
"'  c #68B8AA",
"]  c #7ABAB6",
"[  c #6EB3B1",
"{  c #58C486",
"}  c #57C490",
"|  c #6CC289",
" . c #70C691",
".. c #5BC1A6",
"X. c #56C2B5",
"o. c #6BC6AB",
"O. c #78CAAA",
"+. c #7DDDA5",
"@. c #68C9B6",
"#. c #73D2B1",
"$. c #3EAAC6",
"%. c #5D9FC9",
"&. c #4BB4C0",
"*. c #4BB5CB",
"=. c #57B3CB",
"-. c #6EBACB",
";. c #64A7E9",
":. c #58C0CE",
">. c #6DC3C3",
",. c #77C7C8",
"<. c #7BD2C7",
"1. c #76C9D7",
"2. c #79CAE2",
"3. c #8D8D8D",
"4. c gray53",
"5. c #858D96",
"6. c #888693",
"7. c #8C9195",
"8. c #8E959A",
"9. c #87939D",
"0. c #939493",
"q. c #9B9C9C",
"w. c #97959E",
"e. c #93938A",
"r. c #9AAC9D",
"t. c #8BB59B",
"y. c #8492A5",
"u. c #8C9BA5",
"i. c #959DA3",
"p. c #9297A3",
"a. c #8698BA",
"s. c #9DA1A5",
"d. c #9EACAC",
"f. c #97A5A8",
"g. c #95BAA9",
"h. c #8AA7BB",
"j. c #99A8B7",
"k. c #98BBB1",
"l. c #89B3B8",
"z. c #A5A5A5",
"x. c #ABACAC",
"c. c #A7AAA8",
"v. c #B8B8AC",
"b. c #AEAFB1",
"n. c #B4B3B4",
"m. c #BCBCBB",
"M. c #B6B8B8",
"N. c #ACB3AA",
"B. c #96C696",
"V. c #8AC3B9",
"C. c #99C4B6",
"Z. c #99CBA8",
"A. c #C2C0BF",
"S. c #95B3C9",
"D. c #8DB5CF",
"F. c #A6BAC3",
"G. c #86D5CB",
"H. c #9AC7DA",
"J. c #8AD8D3",
"K. c #93C3CC",
"L. c #AEC6C9",
"P. c #B6C3CC",
"I. c #ADC2D2",
"U. c #A1C9DB",
"Y. c #BCCBDA",
"T. c #97E7D1",
"R. c #86DCE4",
"E. c #80C7FA",
"W. c #B8CBE9",
"Q. c #B9D4E8",
"!. c #AAD2F2",
"~. c #99E9EC",
"^. c #92F5E1",
"/. c #B3EDFD",
"(. c #C3C2C2",
"). c #CDCCCA",
"_. c #C6C6C4",
"`. c #D2CFCE",
"'. c #C6D6DC",
"]. c #D4D3D3",
"[. c #DAD5D5",
"{. c #DDDCDB",
"}. c #D8D8D7",
"|. c #DCE5DA",
" X c #E5E9DB",
".X c #EDEDD4",
"XX c #C6D5E2",
"oX c #C3DAE7",
"OX c #CADEF0",
"+X c #CDE2E6",
"@X c #DBE4E3",
"#X c #C2E4FC",
"$X c #CBE7FD",
"%X c #C6EAFF",
"&X c #CBE9FC",
"*X c #D4ECFE",
"=X c #D4E5F9",
"-X c #D5F1FF",
";X c #DAF2FF",
":X c #E9EEE3",
">X c #ECF2E8",
",X c #F4F9EB",
"<X c #E7FCFB",
"1X c #F6FEF7",
"2X c None",
/* pixels */
"2X2X2X2X2X2X2X2X2X2X2X2X2X2X2X2X2X2X2X2X2X2X2X2X2X2X2X2X2X2X2X2X",
"2X2X2X2X2X2X2X2X2X2X2X2X2X2X2X2X2X2X2X2X2X2X2X2X2X2X2X2X2X2X2X2X",
"2X2X2X2X2X2X2X2X2X2X2X= - ; < 1 1 < : ; - 2X2X2X2X2X2X2X2X2X2X2X",
"2X2X2X2X2X2X2X2X2X- : 3 z.(.).`.).).A.z.3 : ; 2X2X2X2X2X2X2X2X2X",
"2X2X2X2X2X2X2X= ; a A.}.A.c.i.u.u.i.d.A.[.(.a : - 2X2X2X2X2X2X2X",
"2X2X2X2X2X2X- : c.{.b.9.h.H.!.!.!.!.H.h.y.b.{.x.< ; 2X2X2X2X2X2X",
"2X2X2X2X2X- < m.}.7.S.#X$X#X#X#X$X#X%X%X!.h.3.`.(.< ; 2X2X2X2X2X",
"2X2X2X2X= < m.).H Q.*X$X$X#XQ.H.U.&X%XQ.l.~ ,.H ].(.< ; 2X2X2X2X",
"2X2X2X2X; s.].5.OX-X$X*X=XI.( m m K.=XF...B ~ N F ].z.: 2X2X2X2X",
"2X2X2X- 3 {.0.oX;X*X*XOXK.^ ~ _ ~ ~ _ ,._ X...) G.w.[.a ; 2X2X2X",
"2X2X2X: M.n.F.;X*X*X-XF.Q B _ / / :.*.X._ I t g S f.x.m.: 2X2X2X",
"2X2X= 2 ].8.XXXXY.I.Y.k.( ~ / / l j j U 8 9 w S P C.5.].4 ; 2X2X",
"2X2X- 0._.a d.] V.>Xs.G g f Z Z K Y  .V.& A V.] T k.j.m.q.; 2X2X",
"2X2X; n.n., V.@.o.@X9.e ` G.O.j J.T.| G.`   S ,.w g.'.z.M.: 2X2X",
"2X2X: A.d.% Z ,.A * & & >.R.~.k ,./.Q @.T 7 * ,.t B.=Xi.(.< 2X2X",
"2X2X< (.f.7 0 o.T 9 . S R.<.~.n ^ ~.<.<.t 6 5 O.Q z U.s._.< 2X2X",
"2X2X< (.r.w r Z.o.>.e & G.K E.d p 2.W W @.6 o | ` u m d._.1 2X2X",
"2X2X; A.s.j.i.x.] j X 5 Z.Z ;.%.X =.W 0 +.q # U o.u l t._.: 2X2X",
"2X2X; N.N.I.p.g.o.g # e <.1.2.^ @ ;.2.Q ^._ # w ..h 7 r.M.; 2X2X",
"2X2X- 3.(.j.y.R o.j y 9 T.K Z ,.d %.1.k ^ n i o $ 8 0 ).0.; 2X2X",
"2X2X= 1 ).s.y.G +.j + % ' >   g i i h M b M N c N v G [.1 ; 2X2X",
"2X2X2X; x.A.s s r O h 7 # i l l B $.$.*.$.N x x ..J M.b.: 2X2X2X",
"2X2X2X- 1 [.8.h.a.A I ! ! V / ( L c W m c ! [ ] S.3.].2 : 2X2X2X",
"2X2X2X2X; 7.[.7.OXXXI.(.u.| L { } { { I ' H.W.W.H ].0.: 2X2X2X2X",
"2X2X2X2X2X: z.`.e.|.1X1X'.M.k.C.g.B.B.L.@X1X+X7.).x.: ; 2X2X2X2X",
"2X2X2X2X2X- : z.[.0.N.:X1X1X,X>X.X X:X1X>Xv.e.`.c.: : 2X2X2X2X2X",
"2X2X2X2X2X2X- ; 4.].M.q.c.A..X X:X'.P.d.8.n.].3.: : 2X2X2X2X2X2X",
"2X2X2X2X2X2X2X2X; 1 c.).A.N.z.r.s.s.x.A.).c.2 : ; 2X2X2X2X2X2X2X",
"2X2X2X2X2X2X2X2X2X- ; < 4.z.n.m.m.n.c.4.< : ; 2X2X2X2X2X2X2X2X2X",
"2X2X2X2X2X2X2X2X2X2X2X- - ; ; < < : ; ; ; 2X2X2X2X2X2X2X2X2X2X2X",
"2X2X2X2X2X2X2X2X2X2X2X2X2X2X2X2X2X2X2X2X2X2X2X2X2X2X2X2X2X2X2X2X",
"2X2X2X2X2X2X2X2X2X2X2X2X2X2X2X2X2X2X2X2X2X2X2X2X2X2X2X2X2X2X2X2X"
};
