/* XPM */
static char *a5c6a70185d146f1daa6526c86cc2943pVavUHfhYYW742Sz[] = {
/* columns rows colors chars-per-pixel */
"32 32 224 2 ",
"   c None",
".  c #1C1B18",
"X  c #181515",
"o  c #150E0D",
"O  c #2D1E1D",
"+  c #1F1F21",
"@  c #1E2723",
"#  c #2D2723",
"$  c #352B26",
"%  c #3A332C",
"&  c #393A39",
"*  c #2E3C37",
"=  c #563A28",
"-  c #423634",
";  c #483A34",
":  c #583D35",
">  c #3C413D",
",  c #4A4235",
"<  c #594639",
"1  c #5E4A2B",
"2  c #654B37",
"3  c #6B533F",
"4  c #735939",
"5  c #7D623E",
"6  c #364D4C",
"7  c #32577A",
"8  c #3C6361",
"9  c #424343",
"0  c #4A4B4C",
"q  c #484945",
"w  c #5D4D46",
"e  c #584E47",
"r  c #585549",
"t  c #4D4F50",
"y  c #525454",
"u  c #5A5B5D",
"i  c #595655",
"p  c #4E5050",
"a  c #654A40",
"s  c #695949",
"d  c #785749",
"f  c #655958",
"g  c #735551",
"h  c #5D645E",
"j  c #77654D",
"k  c #69625A",
"l  c #6B6757",
"z  c #726C5D",
"x  c #786755",
"c  c #5D5F60",
"v  c #6C5E62",
"b  c #456568",
"n  c #5F6366",
"m  c #4A7372",
"M  c #626365",
"N  c #69686A",
"B  c #726B63",
"V  c #776767",
"C  c #757264",
"Z  c #7A756C",
"A  c #797468",
"S  c #6D6F71",
"D  c #756B73",
"F  c #6E7173",
"G  c #747779",
"H  c #75797B",
"J  c #7D7C7C",
"K  c #7A7775",
"L  c #8E5841",
"P  c #886847",
"I  c #83685B",
"U  c #9B7C5B",
"Y  c #977857",
"T  c #92734D",
"R  c #A77B49",
"E  c #8B696B",
"W  c #867663",
"Q  c #937E66",
"!  c #9B726E",
"~  c #867F77",
"^  c #B68D4B",
"/  c #A3845B",
"(  c #A88558",
")  c #B28D5A",
"_  c #B68E55",
"`  c #99846B",
"'  c #8A837D",
"]  c #988678",
"[  c #87816C",
"{  c #A38B6D",
"}  c #A68769",
"|  c #B9986A",
" . c #AB9578",
".. c #B09372",
"X. c #BBA277",
"o. c #C3924E",
"O. c #C59D65",
"+. c #C8A56A",
"@. c #CAAB72",
"#. c #CCB57D",
"$. c #D6B67A",
"%. c #D1A663",
"&. c #E6C47C",
"*. c #355F87",
"=. c #3B6386",
"-. c #507699",
";. c #7C7D82",
":. c #7D7683",
">. c #6E798B",
",. c #817E84",
"<. c #857C89",
"1. c #897F99",
"2. c #5A8694",
"3. c #798488",
"4. c #778B93",
"5. c #7D909C",
"6. c #7AA599",
"7. c #7392AC",
"8. c #769BAC",
"9. c #6C94A6",
"0. c #57A5A7",
"q. c #79A9B8",
"w. c #69B2B3",
"e. c #8D8382",
"r. c #848B8C",
"t. c #878788",
"y. c #928888",
"u. c #898C95",
"i. c #948E99",
"p. c #8A9596",
"a. c #929393",
"s. c #959399",
"d. c #999B9B",
"f. c #98969C",
"g. c #9B918B",
"h. c #A59A8C",
"j. c #AD9D92",
"k. c #A6999A",
"l. c #A58F8B",
"z. c #96A094",
"x. c #B9A789",
"c. c #B7A596",
"v. c #ACA390",
"b. c #8B9BA9",
"n. c #989AA4",
"m. c #9998B8",
"M. c #878CA9",
"N. c #A39CA7",
"B. c #87A1AC",
"V. c #9CA6AB",
"C. c #9CA9AD",
"Z. c #97A2A7",
"A. c #89A5B7",
"S. c #99AAB7",
"D. c #87B2BE",
"F. c #AAA2A5",
"G. c #A4A1AC",
"H. c #A5A8A9",
"J. c #B9AAA3",
"K. c #A7B2AA",
"L. c #B9B1AA",
"P. c #A5ADB2",
"I. c #A7A6B8",
"U. c #B2AEB6",
"Y. c #A8B4B9",
"T. c #B4B5B7",
"R. c #B3B7BA",
"E. c #BBBDBD",
"W. c #B8B7B6",
"Q. c #C6A987",
"!. c #CDB588",
"~. c #D5BC84",
"^. c #D8BE86",
"/. c #C1AD91",
"(. c #C9B795",
"). c #D4BD90",
"_. c #CEBDA8",
"`. c #B9C1BA",
"'. c #DCC28C",
"]. c #D9C496",
"[. c #CCC79D",
"{. c #E2C588",
"}. c #E9CB8A",
"|. c #EFD48F",
" X c #E5CC95",
".X c #ECD596",
"XX c #F1D28F",
"oX c #F6E299",
"OX c #D4C6A5",
"+X c #C8C6BC",
"@X c #D3C8B1",
"#X c #DED1B3",
"$X c #ECDAAE",
"%X c #EAD7A6",
"&X c #E3D3B4",
"*X c #EDDEB3",
"=X c #E7DCBA",
"-X c #F4E3A8",
";X c #EEE2BA",
":X c #F6E9BB",
">X c #F5E9B5",
",X c #9A96C0",
"<X c #9BB8C5",
"1X c #9DA4CD",
"2X c #A8BDC3",
"3X c #B6BDC1",
"4X c #BDBBC3",
"5X c #A7ADCF",
"6X c #99D4CA",
"7X c #8CCDC2",
"8X c #A6C3CC",
"9X c #B7CEC8",
"0X c #C4C5C6",
"qX c #C6CBCB",
"wX c #CACFD1",
"eX c #CCD3DA",
"rX c #D2D7D9",
"tX c #EDE1C2",
"yX c #DBDEE1",
"uX c #DEE1E3",
"iX c #D5FBF1",
"pX c #EBEBEC",
"aX c #E2E2E2",
"sX c #F3F2F2",
/* pixels */
"                                                                ",
"                            sXsXsXsX                            ",
"                        pXpXeX7.7.eXpXpX                        ",
"                    rXaXrXA.=.7 7 =.A.rXuXuX                    ",
"                  rXrX<X-.=.4.T.K.4.p.OXOX+XrX                  ",
"              wXwXqXV.3.z.[. XXXXX}.}.&.%.+.).+XwX              ",
"          0X0X3XP.d.] @.|.oXoXoXXXXX&.$.+.^ ^ O.(.9X4X          ",
"      9X4XR.S.u.a.k./.%X-X-X>X-XXX{.~.$.O.^ ^ R U k.9X4XE.      ",
"    4XE.S.7.9.i.G.U.&X>X$X>X:X-X}.'.~.#...) R T 4 P v.Y.R.E.    ",
"    W.Y.5.c n i.G.U.@X&X*X:X:X$X.X X'.#.X.} R R d 1 ( Z.P.R.    ",
"    T.d.f - v f.I.W.@X#XtX:X*X&X X X'.'.#...} Y 2 = Y B.P.T.    ",
"    Y.y.w i :.n.U._.OX&XtX*X$X#X[.).!.].~.X.Q Y s 4 / 8.V.H.    ",
"    P.y.i D ,.F.N.j.x._.$X*X.X X~.!.). X{.{.Q.{ j 2 T B.V.H.    ",
"    V.y.f J i.N.h.x.x.Q._.$XXX^.@.O.$.@.) | +.X.j 4 ` A.n.d.    ",
"    Z.J V :.f.j. .{ { } l._.Q.!.| ( R 1 2 T / ) s 5 t.8.n.a.    ",
"    n.J N :.N.! ; # # ; I l.j...P : $ . , x Q ` W x 3.9.d.t.    ",
"    u.p.D ;.e.r > > @ % v N.U.~ 3 r f N J J a.h.j W p.D.p.3.    ",
"    H s.<.v f 6.9X6Xm q V i.N.K z C K A H ,.f.c.s { x.S.p.G     ",
"    F p.K : < P.iX7Xm p z [ <.V z A Z Z K K e.l s  .].`.r.F     ",
"    N r.e.: : ~ 7Xw.8 i W Q ..P l A Z Z N N 0 $ A `  .`.3.N     ",
"    u H C.B a f w.0.6 l z d L = ; z l i & + X & W [ ] R.3.M     ",
"    u H 2Xm w 2 h m 6 z w $ O o ; W e # . . $ i s l I L.J u     ",
"    p F 8X0.8 , , % r [ ! O o X s c.v.e.A k e : a g ! +XH i     ",
"      n G Y.D.2.>.A h.L./.x - - a E c.F.I.<.f g E j.R.r.c c     ",
"        t u 3.2X8XH.F.F.j.g.V f E <.l.i.1X,X1.k.U.n.M 0         ",
"            0 u p.Y.8XC.b.t.u.n.i.n.m.m.m.I.4XH.S 0 0           ",
"              0 0 N V.8X<X9.q.b.1.,X1XI.4XI.H y q               ",
"                  9 0 G S.<Xw.A.>.M.5X4Xt.t 9                   ",
"                      9 p 3.Y.8X1XU.s.u 9                       ",
"                          > u Z.H.M 6 >                         ",
"                            & y i &                             ",
"                                                                "
};
