/* XPM */
static char *_8987_d52bfc176bee7ba370723f5e1e531f07b344d5202e65899e011ce16ca0a85547[] = {
/* columns rows colors chars-per-pixel */
"32 32 202 2 ",
"   c #1E6600",
".  c #7D4805",
"X  c #795435",
"o  c #1C186C",
"O  c #366556",
"+  c #3C7069",
"@  c gray31",
"#  c #545454",
"$  c #5B5B5B",
"%  c #5A575A",
"&  c #625E5F",
"*  c #40615B",
"=  c #5F605F",
"-  c #427949",
";  c #605D60",
":  c #5E6162",
">  c #457762",
",  c #517B6F",
"<  c #477D74",
"1  c #636263",
"2  c #6A6A6A",
"3  c #696768",
"4  c #6F7F73",
"5  c #747475",
"6  c #7B7C7C",
"7  c #777878",
"8  c #77676D",
"9  c #8F273D",
"0  c #8E6B27",
"q  c #952E49",
"w  c #A3314E",
"e  c #88545C",
"r  c #A84159",
"t  c #837E7D",
"y  c #348A14",
"u  c #3B9027",
"i  c #268621",
"p  c #419819",
"a  c #46A219",
"s  c #49A125",
"d  c #229B49",
"f  c #50885A",
"g  c #56AD4A",
"h  c #4D877C",
"j  c #4D907E",
"k  c #549461",
"l  c #688975",
"z  c #768776",
"x  c #6F9373",
"c  c #66A67A",
"v  c #75A77B",
"b  c #64B679",
"n  c #6ABA7E",
"m  c #6BB778",
"M  c #78B67B",
"N  c #65A168",
"B  c #51C14C",
"V  c #5CCB68",
"C  c #60C06A",
"Z  c #69C576",
"A  c #76C67E",
"S  c #9F8341",
"D  c #8D976A",
"F  c #201F88",
"G  c #2B2C91",
"H  c #590280",
"J  c #711FA1",
"K  c #7436A6",
"L  c #37409F",
"P  c #41529F",
"I  c #4555AF",
"U  c #726FB1",
"Y  c #8B7785",
"T  c #8355BC",
"R  c #55948C",
"E  c #579B8B",
"W  c #508E98",
"Q  c #569A97",
"!  c #4F8C87",
"~  c #7C8D88",
"^  c #6E9790",
"/  c #5DA49C",
"(  c #56A59B",
")  c #5EBE90",
"_  c #63A986",
"`  c #78A988",
"'  c #66B58C",
"]  c #6CBB8B",
"[  c #6AB888",
"{  c #76BA85",
"}  c #67A79C",
"|  c #65B593",
" . c #6AB79A",
".. c #7BBB9B",
"X. c #72B697",
"o. c #7FAA92",
"O. c #5485BF",
"+. c #769EB7",
"@. c #5CA7A3",
"#. c #59B0A2",
"$. c #63ACA4",
"%. c #62ADAD",
"&. c #6CA7A1",
"*. c #6BB4AB",
"=. c #6CBAAC",
"-. c #68B7A6",
";. c #77B6AA",
":. c #6CA8B7",
">. c #6BB6B0",
",. c #6CB9B3",
"<. c #69B6BD",
"1. c #71BCB4",
"2. c #75B9B7",
"3. c #79AFA6",
"4. c #75C984",
"5. c #77C589",
"6. c #78C797",
"7. c #7AE093",
"8. c #68C3A5",
"9. c #77C5A1",
"0. c #7FDDAF",
"q. c #78C5BC",
"w. c #6692DD",
"e. c #6BA5DC",
"r. c #6FBBC4",
"t. c #78B3E0",
"y. c #78C6CA",
"u. c #7CC8D5",
"i. c #8C8C8C",
"p. c #848887",
"a. c #84998A",
"s. c #8E9D8F",
"d. c #888E93",
"f. c #8E9293",
"g. c #899999",
"h. c #949494",
"j. c #9A9A9A",
"k. c #979799",
"l. c #87AA8C",
"z. c #83B489",
"x. c #95AB9B",
"c. c #959DA1",
"v. c #9B9EA3",
"b. c #8483B3",
"n. c #9CA9A2",
"m. c #9DA8B3",
"M. c #88B4B8",
"N. c #95B8B8",
"B. c #8AB4AA",
"V. c #A3A3A4",
"C. c #A5ACAA",
"Z. c #ACACAC",
"A. c #A4A9A7",
"S. c #A6B5B7",
"D. c #B4B4B4",
"F. c #BCBBBC",
"G. c #B5B9B8",
"H. c #A6B1B3",
"J. c #C0BFBF",
"K. c #80CBA0",
"L. c #85D4B5",
"P. c #81C6B4",
"I. c #C0C0BF",
"U. c #8AB4C5",
"Y. c #AFB3C0",
"T. c #BCBDC2",
"R. c #B7BBC4",
"E. c #A1BAD2",
"W. c #C2BEC1",
"Q. c #84C6CA",
"!. c #8CD4CA",
"~. c #90D8CF",
"^. c #84C7D9",
"/. c #86D3D9",
"(. c #93D7DB",
"). c #B7CACC",
"_. c #B7C5D2",
"`. c #ADC1C5",
"'. c #95DBEF",
"]. c #C3C3C3",
"[. c #CDCCCC",
"{. c #C8C7C8",
"}. c #D0CBCF",
"|. c #CECCD0",
" X c #CACED9",
".X c #D1CDD4",
"XX c #D4D4D4",
"oX c #DDDCDB",
"OX c #D8D7DA",
"+X c #E1DCDE",
"@X c #E0E1DD",
"#X c #C9D7E7",
"$X c #C7D6E3",
"%X c #DDE5EB",
"&X c #D3E2EE",
"*X c #DDEBF6",
"=X c #E6E5E5",
"-X c #E6E9ED",
";X c #EDF1F4",
":X c #E5F4FD",
">X c #F9F7F8",
",X c None",
/* pixels */
",X,X,X,X,X,X,X,X,X,X,X,X,X,X,X,X,X,X,X,X,X,X,X,X,X,X,X,X,X,X,X,X",
",X,X,X,X,X,X,X,X,X,X,X,X,X,X,X,X,X,X,X,X,X,X,X,X,X,X,X,X,X,X,X,X",
",X,X,X,X,X,X,X,X,X,X,X@ # % 1 2 2 1 $ # # ,X,X,X,X,X,X,X,X,X,X,X",
",X,X,X,X,X,X,X,X,X# % 7 V.F.[.[.[.[.].V.6 $ % ,X,X,X,X,X,X,X,X,X",
",X,X,X,X,X,X,X,X% 6 ].OX].m.v.v.c.v.n.R.OX].Y $ $ ,X,X,X,X,X,X,X",
",X,X,X,X,X,X# $ V.+XZ.k.m.R.$X#X$X$X_.m.g.k.H.c.1 $ ,X,X,X,X,X,X",
",X,X,X,X,X# 1 F.XXf.S.&X*X*X_.N.M.).*X:X_.l O ^ g.: $ ,X,X,X,X,X",
",X,X,X,X,X1 F.[.i.$X:X*X*XR.} ( Q / `. Xn...@.+ j ` ; $ ,X,X,X,X",
",X,X,X,X% v.XXi.-X;X%X%XS.&.$.%.-.@.$.;.3.8.9.] O v j.& ,X,X,X,X",
",X,X,X# 7 +Xh.OX;X-X;XF.X.#.=.2.+.2.1.-.q.Y e t ^ * G.6 % ,X,X,X",
",X,X,X% G.D.D.>X-X;X-Xn.X.$.q.U J K U.y.p.9 q w ~ + ~ D.$ ,X,X,X",
",X,X@ 5 XXh.F.P.{.;XOXz.-.1.Q.T H K U.6.z q q r ^ $.l [.7 % ,X,X",
",X,X# h.{.6 B.#...oXT.o.=.1.!.M.b.E.K.4.2.d.8 c.&.6.x F.j.# ,X,X",
",X,X# D.A.E q.-.X.N.B.=.&.*.~.;.L.!.} L.V Z _ 1.$.5.M V.G.$ ,X,X",
",X,X% ].g.$.*.Q _ ] $.>.} /.(.U.(.(.L.u y p g 5.*...] f.I.1 ,X,X",
",X,X1 {.a.b c ] ..Q } $.%.L.!.:.^.'.7.  d i u b 5.$.$., A.2 ,X,X",
",X,X1 {.s.l l.` < R  .c 6.K.t.P L I j s y a g 8.6.| Q + ` 1 ,X,X",
",X,X% T.V.V.XX~ -.@.R M { *.w.o G F O.4.V V 8.8.) ' Q > v = ,X,X",
",X,X# Z.D.V.|.` E Q R 5.} l 2 G G I e.u./.y.r.r.' / W f v & ,X,X",
",X,X@ i.].p.R.N } Q ! | q.S . X U t.u././.u.r.%.b  .h N 4 % ,X,X",
",X,X,X2 [.h.T.M ' Q ! / <.D 0 0 r.u.u.y.y.<.@.| m ' - { 1 & ,X,X",
",X,X,X# Z.T.k.c.4.' / | $.@.;...=.<.>.8.,.@.| A 4.k x p.% ,X,X,X",
",X,X,X# 2 OXh.S.k.v [ b { ' =.*.] n ] } / ] { { c 4 W.2 = ,X,X,X",
",X,X,X,X# i.OXf.OX).C.C.a.A A 4.4.A 4.] n m H.H.5 }.h.$ ,X,X,X,X",
",X,X,X,X,X# A.XXh.@X>X>XXXx.l.z.z.z.A M x.|.OXh.[.Z.% ,X,X,X,X,X",
",X,X,X,X,X% % V.XXh.Z.=X>X>X=XOXOX}.[.|.@XG.h.|.Z.$ 1 ,X,X,X,X,X",
",X,X,X,X,X,X# % i.XXG.j.Z.{.@X=X@XoX[.Z.j.G.OXi.% 1 ,X,X,X,X,X,X",
",X,X,X,X,X,X,X,X# 3 V.[.].Z.V.V.V.V.Z.I.[.A.2 $ ,X,X,X,X,X,X,X,X",
",X,X,X,X,X,X,X,X,X# % 3 p.V.D.F.F.D.V.i.2 $ = ,X,X,X,X,X,X,X,X,X",
",X,X,X,X,X,X,X,X,X,X,X,X# # # 1 = $ % % $ ,X,X,X,X,X,X,X,X,X,X,X",
",X,X,X,X,X,X,X,X,X,X,X,X,X,X,X,X,X,X,X,X,X,X,X,X,X,X,X,X,X,X,X,X",
",X,X,X,X,X,X,X,X,X,X,X,X,X,X,X,X,X,X,X,X,X,X,X,X,X,X,X,X,X,X,X,X"
};
