/* XPM */
static char *e689538dcfb84fa8a18735345f500d80[] = {
/* columns rows colors chars-per-pixel */
"16 16 164 2 ",
"   c #1C767B",
".  c #337477",
"X  c #317C7B",
"o  c #484849",
"O  c #4E4E4E",
"+  c #4F5050",
"@  c #505150",
"#  c #505051",
"$  c #525353",
"%  c gray33",
"&  c gray37",
"*  c #60605F",
"=  c #626262",
"-  c #656564",
";  c #696667",
":  c #696867",
">  c DimGray",
",  c #6A6968",
"<  c #767677",
"1  c #797978",
"2  c #7F7F7C",
"3  c #35816A",
"4  c #3F9A6C",
"5  c #288B7A",
"6  c #47887F",
"7  c #469A79",
"8  c #489C7A",
"9  c #2D8183",
"0  c #338386",
"q  c #3A8680",
"w  c #35AA90",
"e  c #3096AB",
"r  c #3899B3",
"t  c #3799B9",
"y  c #3BACA7",
"u  c #489680",
"i  c #679A8D",
"p  c #7A9393",
"a  c #7E9B94",
"s  c #4CA08A",
"d  c #56A18E",
"f  c #46B282",
"g  c #4AB88D",
"h  c #47A593",
"j  c #49A393",
"k  c #4BAA95",
"l  c #45A19E",
"z  c #4EA39C",
"x  c #44AF9A",
"c  c #56A99F",
"v  c #5AAC9D",
"b  c #62A69F",
"n  c #74A99A",
"m  c #7FBE9E",
"M  c #4387A0",
"N  c #5A9AAA",
"B  c #4E88B4",
"V  c #42A4A6",
"C  c #45AAA4",
"Z  c #42A3A8",
"A  c #45A7AF",
"S  c #55A7A4",
"D  c #48B6A1",
"F  c #48ADBB",
"G  c #52AAB5",
"H  c #56BBB6",
"J  c #65A2A3",
"K  c #6EA2A4",
"L  c #62ADA6",
"P  c #73AEAB",
"I  c #68B5A5",
"U  c #6FBEA8",
"Y  c #60BEB3",
"T  c #60B2BC",
"R  c #6EBDB8",
"E  c #74C5A1",
"W  c #6EC4B3",
"Q  c #7AC1B3",
"!  c #5799C7",
"~  c #5BB5C1",
"^  c #69B6C2",
"/  c #7BB1C1",
"(  c #7ED2CC",
")  c #78C5D0",
"_  c #818181",
"`  c #828180",
"'  c #878481",
"]  c #858483",
"[  c #828284",
"{  c #838484",
"}  c #878684",
"|  c #878685",
" . c #888582",
".. c #8D8586",
"X. c #8C8888",
"o. c #8D8C8B",
"O. c #8F8D8C",
"+. c #908E8D",
"@. c #918F8D",
"#. c #918E8E",
"$. c #92908E",
"%. c #959091",
"&. c #969190",
"*. c #949393",
"=. c #949492",
"-. c #9A9492",
";. c #999394",
":. c #9C9B9A",
">. c #87AF99",
",. c #8DACA6",
"<. c #9AA1A4",
"1. c #90ABA2",
"2. c #88BEB8",
"3. c #92B1BA",
"4. c #98B5BD",
"5. c #9FBBB9",
"6. c #A3A1A0",
"7. c #A7A8A6",
"8. c #A9AAA7",
"9. c #A5AEAB",
"0. c #AAABAF",
"q. c #AEAEAF",
"w. c #AFAEB0",
"e. c #ACAFB2",
"r. c #AAB0BD",
"t. c #A9B5BE",
"y. c #B3B3B8",
"u. c #C2C5BF",
"i. c #C2DBBC",
"p. c #AABDCB",
"a. c #ACBDCA",
"s. c #B2B4C3",
"d. c #BABDC3",
"f. c #BCBFC5",
"g. c #8FC0C7",
"h. c #9BC7D4",
"j. c #96CAD6",
"k. c #89DCDA",
"l. c #A7CAC4",
"z. c #AEC1CB",
"x. c #B5C1C9",
"c. c #BBC5CD",
"v. c #AECAD0",
"b. c #ADC5DB",
"n. c #B0C7DD",
"m. c #BED1DE",
"M. c #ABD6EE",
"N. c #B8D8F0",
"B. c #B7E0F7",
"V. c #C9CAC7",
"C. c #C1C3C8",
"Z. c #C1DDC5",
"A. c #C7DDC8",
"S. c #D3D3CC",
"D. c #C9CDD0",
"F. c #D9DFDC",
"G. c #DAE3D7",
"H. c #C6E2FA",
"J. c #C6E6FF",
"K. c #CBE8F9",
"L. c #D4E6F8",
"P. c #D7EFFE",
"I. c #E4E6E1",
"U. c None",
/* pixels */
"U.U.U.U.U.U.U.U.U.U.U.U.U.U.U.U.",
"U.U.U.U.U.: ' +.$. ., U.U.U.U.U.",
"U.U.U.+ +.e.a.n.b.p.y.&.% U.U.U.",
"U.U.O :.x.N.J.M.B.H./ 4.6.$ U.U.",
"U.U.o.c.K.P.h.A T j.H y 5.&.U.U.",
"U.- q.m.L.v.V F Z C j d K w., U.",
"U.| <.P l.a c S U E q b m d._ U.",
"U.;.i k d . k.^ ) ( 4 8 I z.O.U.",
"U.+.1.>.L 3 W ! M Y f 7 l J -.U.",
"U.2 s.,.z X Q N B T G 9 5 n X.U.",
"U.= 0.p 7   6 9 r t e w h 9.; U.",
"U.U.| r.3.2.v D g x R g.t.X.U.U.",
"U.U.o *.V.I.G.A.i.Z.F.C.*.# U.U.",
"U.U.U.o _ 7.C.S.D.x.8.' # U.U.U.",
"U.U.U.U.U.& < [ ' 1 = U.U.U.U.U.",
"U.U.U.U.U.U.U.U.U.U.U.U.U.U.U.U."
};
