/* XPM */
static char *de0be6ed5e2141d8ea8be68b1cfa71c4[] = {
/* columns rows colors chars-per-pixel */
"64 64 229 2 ",
"   c #043638",
".  c #043028",
"X  c #3C3C3C",
"o  c #353535",
"O  c #2C2C2C",
"+  c #032A24",
"@  c #0A4738",
"#  c #11552F",
"$  c #1B6E36",
"%  c #225E2D",
"&  c #013850",
"*  c #083166",
"=  c #064353",
"-  c #185856",
";  c #104C4C",
":  c #2D5256",
">  c #187354",
",  c #2C6F4D",
"<  c #165B67",
"1  c #115570",
"2  c #1C6468",
"3  c #17657A",
"4  c #1B7A71",
"5  c #28686A",
"6  c #246C75",
"7  c #297578",
"8  c #387D7A",
"9  c #307869",
"0  c #23586C",
"q  c #4D4D4D",
"w  c #434343",
"e  c #535353",
"r  c #5C5C5C",
"t  c #474C57",
"y  c #555B66",
"u  c #5D6264",
"i  c #547273",
"p  c #636464",
"a  c #6B6B6B",
"s  c #64686A",
"d  c #656C74",
"f  c #697379",
"g  c #737374",
"h  c #7B7B7B",
"j  c #727979",
"k  c #70756D",
"l  c #467359",
"z  c #807F7E",
"x  c #318D37",
"c  c #188552",
"v  c #3B9557",
"b  c #2D8653",
"n  c #318C73",
"m  c #1B8C6D",
"M  c #4C9072",
"N  c #74937D",
"B  c #50AB70",
"V  c #4D9A5A",
"C  c #58C775",
"Z  c #6DCB78",
"A  c #85867D",
"S  c #176B84",
"D  c #1C708D",
"F  c #297A8A",
"G  c #277A97",
"H  c #2F7683",
"J  c #1E608F",
"K  c #547591",
"L  c #6A7987",
"P  c #727C8A",
"I  c #358C90",
"U  c #38AC8C",
"Y  c #3AAC96",
"T  c #3EB196",
"R  c #3DB38D",
"E  c #3499A8",
"W  c #2F95B6",
"Q  c #379AB7",
"!  c #2991A9",
"~  c #39A6A9",
"^  c #3DA8B5",
"/  c #1E858F",
"(  c #489689",
")  c #489696",
"_  c #489091",
"`  c #758798",
"'  c #76898C",
"]  c #48B68A",
"[  c #46B495",
"{  c #57BB99",
"}  c #4BAC94",
"|  c #6EB397",
" . c #4998A4",
".. c #4990AB",
"X. c #7292AC",
"o. c #44A6AD",
"O. c #57A9A8",
"+. c #4AB3A9",
"@. c #57B9A9",
"#. c #44AAB4",
"$. c #4AAEB9",
"%. c #46AAB6",
"&. c #4DB2BD",
"*. c #41B0B4",
"=. c #57B6B7",
"-. c #56A9B4",
";. c #67B9AB",
":. c #65B9B7",
">. c #77B8B7",
",. c #6AB2AD",
"<. c #56C489",
"1. c #59C399",
"2. c #5ED894",
"3. c #6BC787",
"4. c #76D389",
"5. c #74CA99",
"6. c #78D597",
"7. c #6DCB91",
"8. c #57C4A4",
"9. c #59C1B2",
"0. c #74C8A5",
"q. c #69C8B9",
"w. c #76C7B6",
"e. c #7BD4B6",
"r. c #6ED0AA",
"t. c #349BC2",
"y. c #3BA7CC",
"u. c #4DB4C4",
"i. c #55B8C5",
"p. c #4BAECF",
"a. c #69B8C5",
"s. c #68B7D6",
"d. c #6FB4C6",
"f. c #65A5E9",
"g. c #6EB5EA",
"h. c #56A5D5",
"j. c #59C2D1",
"k. c #6BC5C5",
"l. c #75C9C7",
"z. c #7AD3C7",
"x. c #76C8D6",
"c. c #7CD2D6",
"v. c #6DD3D2",
"b. c #77C5E8",
"n. c #7CC7F3",
"m. c #78E2C2",
"M. c #848484",
"N. c #8C8C8C",
"B. c #888888",
"V. c #858B95",
"C. c #959494",
"Z. c #9C9C9C",
"A. c #979A96",
"S. c #8C9590",
"D. c #A3A39D",
"F. c #8C99A6",
"G. c #8F9DB2",
"H. c #98A7A9",
"J. c #98A9B9",
"K. c #93B4B3",
"L. c #A4A4A4",
"P. c #ABABAB",
"I. c #A7AAA8",
"U. c #A2ABB8",
"Y. c #B3B3B3",
"T. c #BCBCBB",
"R. c #B4B8B8",
"E. c #ACB4B1",
"W. c #A0A0A1",
"Q. c #83D891",
"!. c #86C9AB",
"~. c #85D5A7",
"^. c #8AC8BA",
"/. c #93D3B3",
"(. c #A1D5A7",
"). c #C3C5B7",
"_. c #93AFCC",
"`. c #A8B8C8",
"'. c #B0BCCE",
"]. c #9ABDE4",
"[. c #C4BEC2",
"{. c #84D5C9",
"}. c #87D7D8",
"|. c #91CBCB",
" X c #B4C5C9",
".X c #A9C6D7",
"XX c #B4C6D7",
"oX c #AFCCCC",
"OX c #93E5D9",
"+X c #88DCE3",
"@X c #8CD0EF",
"#X c #B9D5E9",
"$X c #B6DDFC",
"%X c #ACCCEB",
"&X c #97E7EA",
"*X c #98EBF6",
"=X c #BDE1FE",
"-X c #A7F4F8",
";X c #C4C4C4",
":X c #CBCBCB",
">X c #C6D5DA",
",X c #D3D3D3",
"<X c #DBDBDB",
"1X c #D3D8D8",
"2X c #CED3CB",
"3X c #D8E5D5",
"4X c #ECF0D9",
"5X c #C5DBEB",
"6X c #C4DDF4",
"7X c #CAE2EA",
"8X c #D7E8E9",
"9X c #C3E4FE",
"0X c #CBE9FE",
"qX c #CBE5FA",
"wX c #D3EBFE",
"eX c #D7E9F7",
"rX c #DAF0FD",
"tX c #DDF2EE",
"yX c #E3E4E4",
"uX c #EBEBEB",
"iX c #E5EBE7",
"pX c #EAF6E9",
"aX c #F7FBE6",
"sX c #E9F4F2",
"dX c #F1F2F2",
"fX c #F8FBFD",
"gX c #E8EFF3",
"hX c #E0DEDF",
"jX c None",
/* pixels */
"jXjXjXjXjXjXjXjXjXjXjXjXjXjXjXjXjXjXjXjXjXjXjXjXjXjXjXjXjXjXjXjXjXjXjXjXjXjXjXjXjXjXjXjXjXjXjXjXjXjXjXjXjXjXjXjXjXjXjXjXjXjXjXjX",
"jXjXjXjXjXjXjXjXjXjXjXjXjXjXjXjXjXjXjXjXjXjXjXjXjXjXjXjXjXjXjXjXjXjXjXjXjXjXjXjXjXjXjXjXjXjXjXjXjXjXjXjXjXjXjXjXjXjXjXjXjXjXjXjX",
"jXjXjXjXjXjXjXjXjXjXjXjXjXjXjXjXjXjXjXjXjXjXjXjXjXjXjXjXjXjXjXjXjXjXjXjXjXjXjXjXjXjXjXjXjXjXjXjXjXjXjXjXjXjXjXjXjXjXjXjXjXjXjXjX",
"jXjXjXjXjXjXjXjXjXjXjXjXjXjXjXjXjXjXjXjXjXjXjXjXjXjXjXjXX q p s a a e w jXjXjXjXjXjXjXjXjXjXjXjXjXjXjXjXjXjXjXjXjXjXjXjXjXjXjXjX",
"jXjXjXjXjXjXjXjXjXjXjXjXjXjXjXjXjXjXjXjXjXjXjXjXe r p p u r p r r p p p p a a r X jXjXjXjXjXjXjXjXjXjXjXjXjXjXjXjXjXjXjXjXjXjXjX",
"jXjXjXjXjXjXjXjXjXjXjXjXjXjXjXjXjXjXjXjXjXq p p r r r r p a k g g a p p r r e r a a r jXjXjXjXjXjXjXjXjXjXjXjXjXjXjXjXjXjXjXjXjX",
"jXjXjXjXjXjXjXjXjXjXjXjXjXjXjXjXjXjXjXe p r r r a h C.Z.L.Y.Y.T.T.R.Y.P.Z.C.z a r e p k p O jXjXjXjXjXjXjXjXjXjXjXjXjXjXjXjXjXjX",
"jXjXjXjXjXjXjXjXjXjXjXjXjXjXjXjXjXq p r r a A A.Y.;X<XyXdXdXdXdXdXdXdXuXuXyX:XY.Z.z p e r g p jXjXjXjXjXjXjXjXjXjXjXjXjXjXjXjXjX",
"jXjXjXjXjXjXjXjXjXjXjXjXjXjXjXjXp p e a M.L.;XyXdXdX3X:XE.W.C.C.C.C.A.P.;X<XuXdXyX:XP.B.s q p g X jXjXjXjXjXjXjXjXjXjXjXjXjXjXjX",
"jXjXjXjXjXjXjXjXjXjXjXjXjXjXw a e p M.L.:XuXdX<XP.B.d d f L P ` ` ` L f s s N L.,XdXuX,XP.M.r e g r jXjXjXjXjXjXjXjXjXjXjXjXjXjX",
"jXjXjXjXjXjXjXjXjXjXjXjXjXe a e g C.T.yXdX,XC.s d ` _.].%X$X$X$X$X$X$X%X%X_.X.i p B.[.dXiX:XA.g q a a jXjXjXjXjXjXjXjXjXjXjXjXjX",
"jXjXjXjXjXjXjXjXjXjXjXjXr r r h L.,XdX<XC.u L _.$X=X=X=X$X$X$X$X=X$X$X$X=X=X=X$X_.` u B.,XdX<XP.h e r g jXjXjXjXjXjXjXjXjXjXjXjX",
"jXjXjXjXjXjXjXjXjXjXjXe r r M.P.yXgXT.a L |.=X9X=X=X=X=X$X=X=X9X=X=X=X=X=X=X=X=X9X$X.X' u I.uXiXT.M.e p g jXjXjXjXjXjXjXjXjXjXjX",
"jXjXjXjXjXjXjXjXjXjXe r r B.Y.iXuXZ.u G.$X0X9X=X9X9X9X9X9X9X9X$X=X=X9X=X=X=X=X=X%X.X%X.X`.y M.<XuX;XB.e p s jXjXjXjXjXjXjXjXjXjX",
"jXjXjXjXjXjXjXjXjXw s r M.Y.uXyXB.s .X0XqXqX=X0X0X9X9X0X$X5X5X6XqX0X=X9X0X9X9X$XG.^.E ! |.>XM.B.<XuX;XM.e a r jXjXjXjXjXjXjXjXjX",
"jXjXjXjXjXjXjXjXjXp e z L.yXuXz f #X0XqXqXqX0X0X0X9X0X#XXX.Xl.:.:..XeX9X0X9X0X.XU.w.~ E a.}.a.` A.<XuXR.h q g w jXjXjXjXjXjXjXjX",
"jXjXjXjXjXjXjXjXp e g Z.hXuXB.f #XwX0X0X0X0X0X0X0XwX#XU.^.^ E E E ! d.eX9X0X%X`.{.^ ~ ^ ^ ^ Q / 5 I.<XiXP.a e g jXjXjXjXjXjXjXjX",
"jXjXjXjXjXjXjXw r p C.:XdXL.s #XwXwXwXwXwXwX0XwXwX#X`.`.^ ~ o.o.+.o.~ #X7XeXK.H.8.8.&.#.u.&.*.*.] S.N.iX<XA.r p p jXjXjXjXjXjXjX",
"jXjXjXjXjXjXjXp e M.Y.dX;Xp  XrXwXwXwXwXwXwXwXqXXX X^.&.#.$.&.&.#.*.#.#.-.l.XX|.q.@.9.&.8.9.^ @.<.oXa L.uX;Xh q g O jXjXjXjXjXjX",
"jXjXjXjXjXjXq r p Z.<XyXa F.rXwXwXwXrXwXwXwXqX'.'.a.E o.$.&.&.u.&.#.%.%.&.%.k.=.%.u.1.=.{ 1.@.@.q.eXU.p ,XiXP.p r p jXjXjXjXjXjX",
"jXjXjXjXjXjXp r z [.dXW.d qXrXwXwXwXwXwXwXwXXXU.w.~ o.$.&.&.i.$.#.$.&.i.u.u.i.9.u.u.8.9.1.8.=.o.E |.8XP B.uX:XM.q g jXjXjXjXjXjX",
"jXjXjXjXjXX p p Z.hX<Xs `.wXwXwXwXwXwXrXwXrXJ.H.=.o.#.&.u.&.&.%.$.&.j.j.i.u.j.1.@.u.+.[ B n 7 < - ; K.J.u ;XuXI.r p r jXjXjXjXjX",
"jXjXjXjXjXr r h R.dXW.j eXrXrXrXwXeX6X5XqXqXG./.8.%.$.$.&.&.=.&.i.i.&.=.=.#.} <.@.F 2 , $ , 9 H _ } !.`.P B.uX;Xh e g jXjXjXjXjX",
"jXjXjXjXjXr r N.,XyXk J.5X X`.'.`.F.F.H.`.'.U.~.9.u.i.i.&.=.i.#./ 6 < , 9 7 7 , n ; ) ;.5.!.K.w.:.;.(. XJ.s ,XyXC.e g X jXjXjXjX",
"jXjXjXjXX r s L.uX[.u F.V.V.U.^.|.1XgXfXE.F.K.C I F I 6 5 +.i.7 M M ( 4.4.{.!.5.I   O.w.| w.,.,.9.6./.R.'.j L.uXY.r p r jXjXjXjX",
"jXjXjXjXe r g Y.dXC.u h L.oXq.;.O.(.sXfX Xs N , - 9 8 _ O.( @.5 m.z.{.Q.4.Q.4.{.}.; i ^.>.>.K.,.e.v N U.#XH.h iX;Xg e a jXjXjXjX",
"jXjXjXjXr r A :XuXh ' ' T.|.q.;.;.6.8XfXR.d I.(.^.l.z.OX/.n O.7 l.OX{.Q.Z 3.^.z.}.i @ 5 : >.>.:.~.$ N 7XwX'.a <X<XB.e g jXjXjXjX",
"jXjXjXjXr r N.1X<XN ( @ | OX,.;.:.~.2X1XR.f - ( ( w.z.}.OX| O.I >.-X&X&X,.8 +Xz.{.B % -   | :.:.~.v M tXtX1Xa [.yXC.e a jXjXjXjX",
"jXjXjXjXp r C.yX:Xd ) - 7 z.:.:.:.( . 8 K.@ ; O.8 {.}.+X*X}...F -.-X&X-Xl.2 c.l.w.B b ] @ ) l.>.6.V b 3XeX8Xf P.uXL.e a X jXjXjX",
"jXjXjXjXr p W.uX).i -.5 5 l.:.;.:.( - (  .1 ; z.c.c.}.+X&X&X .F _ -X&X&X{.8 l.k.e.3.> [ # I l.k.~.B b 8XeX9XP Z.uXP.r a r jXjXjX",
"jXjXjXjXp p W.uXY.i 1.7 - :.=.O.;.5.% - < = ; a.x.x.c.+X+X-X-.D H &X*XOX}.{.l.w.r.$ b ] # b ~.:.w.O.2 k.>X0X` C.uXY.r p a jXjXjX",
"jXjXjXjXp a L.uXY.k 1.b # 5.0.;.5.w.) O.} @ ; k.c.c.z.{.OX*Xs.J J @X&X+Xz.l.e.r.r.v x C x % Q.0.:.=.2 E ~ 7XC.N.uXT.p p p jXjXjX",
"jXjXjXjXs p W.uXY.l <.v # C 4.Q.!.{ ,.;.,.$ @ k.c.m.B ,.@Xn.f.J * -.x.k.k.O.@.q.q.m.x C c # 5.4.;.-.5 E ! =.H.N.uXT.p p a jXjXjX",
"jXjXjXjXp p Z.uXY.N !.| N.(.(.oX^.O.:.:.k.% @ w.w.~.M ..@Xf.b.H & G s.h.k.7 2 v.9.q.v c m @ 1.4.0.=.0 / ^ ! | P.yXY.r a p jXjXjX",
"jXjXjXjXr p Z.uXR.q G.`.y V.W.B.^.O.=. . .; . 4.3.6.M J f.f.b.Q + J h.X.k.) - r.9.q.B c ! = } 7.7.:.7 S *.! M [.yXP.e a e jXjXjX",
"jXjXjXjXp r C.hX:Xp XX5XN.H. XI.~.q._   = @ # 3.6.{.:...f.g.b.X.+ 0 s.h.j.9.$ 2.2.2.<.4 ~ = _ 6.7.q.H 3 8.M l :XyXD.e a o jXjXjX",
"jXjXjXjXp e B.,XhXa  XrXF.' Y./.7.k.) 2  .7 # 3.^.x.z.x.f.s.d.,.; ; g.f.b.c.4 q.m.m.k./ W 1 n 6.1.a. .3 +.m , <XhXN.e k jXjXjXjX",
"jXjXjXjXr r h ;XuXh F.rX_.y U.6.;.:.O.2 Q F @ 0.v.:.l.c.x.s.-.d.K * f.f.b.&XF k.&X+X+XI t.1 , 6.;.=._ 1 T > k iX,Xh e g jXjXjXjX",
"jXjXjXjXq r a P.dXW.L $X_.t H.6.;.O.-.< E J @ 0.l.!.^. ...l.,.d.h.* f.b.@X*XF :.*X+Xc.F W S . $ ; ; = m U b E.hX[.p r a jXjXjXjX",
"jXjXjXjXjXp r Z.yX;Xp >X>Xt S.Q.7.:.O.< E G   0.{.!.(.0 : >.,.s.g.J h.+Xx.s.H 6 I 6 < S W ! > > 4 / I U U ' [.hXP.e a e jXjXjXjX",
"jXjXjXjXjXa e M.:XuXg G.6Xy P ~.3.;.O.2 G D   :.x.^.(.l + M ( -...0 1 J 3 1 S D D ! ! W Q ~ U Y ~ ~ U Y > S.<X<XB.q h jXjXjXjXjX",
"jXjXjXjXjXe r a P.uXP.d #XK y /.3.0.:.9 S S   _  .I l % + # ; 1 1 G ! Q W y.p.y.j.p.y.y.T U U Y ~ ] Y U M R.hX;Xs r g jXjXjXjXjX",
"jXjXjXjXjXjXp r N.<XyXa L.F.t H.Q.B M - S / ; @ & = 1 6 ( n Y t.y.p.h.p.y.p.i.p.p.Q Q o.U T [ [ ] [ @.| N.;XyXA.q k q jXjXjXjXjX",
"jXjXjXjXjXjXp r g Y.uXP.s G.i t ' l # > E ^ Y B } W Q y.y.y.Y Y *.*.*.t.^ ~ #.Q W W ! U Y +.T ] U ^.`.g N.iX;Xa e h jXjXjXjXjXjX",
"jXjXjXjXjXjXX p r N.,XuXP L _._.K V.0.T U U U R ] T ~ ^ p.u.&.^ 1.U U U ~ ^ W W ^ +.T [ 8.[ { { ^.XXK s <XyXC.e a r jXjXjXjXjXjX",
"jXjXjXjXjXjXjXp e a P.yX,Xy G.$X%XX.` K.,.;.;.>.;.T U T +.+.-.@.{ T [ Y Q @.W ~ ] ] ] |.K.K.`.`.%X_.u T.uXR.p e h jXjXjXjXjXjXjX",
"jXjXjXjXjXjXjXO a e z [.dXP.u '.rX6X_.G.G.J.U.F.C.!.] Z ] T <.} <.<.[ T 3.4.[ ] U [ |.'._._._.].].u Z.uX:XM.q g q jXjXjXjXjXjXjX",
"jXjXjXjXjXjXjXjXe p r N.:XdXZ.s ,XdXsXeX7X5X8X3XX.' (.3.{ [ C <.<.<.<.Z Z C U [ ^.`.].%X=XqX=X#Xf M.yX<XC.e p g jXjXjXjXjXjXjXjX",
"jXjXjXjXjXjXjXjXjXa e p A.<XuXC.p 2XaXdXtXgXpXaX7XJ.A.I.K.(.!.!.(.Q.Q.Q.4.5.!.oX'.>XiX7XeXpX1Xf z yXhXL.p e h jXjXjXjXjXjXjXjXjX",
"jXjXjXjXjXjXjXjXjXjXg e a W.<XuXW.r ).4XsXpXaXaXrXtX>X).R.I.Y.'.P.D.D.Y.E.).2X>XeXpXaXaXrX Xs B.yXyXP.s q h w jXjXjXjXjXjXjXjXjX",
"jXjXjXjXjXjXjXjXjXjXo a q a Z.<XuXY.p V.3XaXpXpXpXpXrXpXaXtX4X4XaX4X2X2X2X3X4XpXaXaXaX4XD.r A.yX<XP.a q h q jXjXjXjXjXjXjXjXjXjX",
"jXjXjXjXjXjXjXjXjXjXjXw g q a C.,XuX2Xh a P.8XpXaXaXaXaXaXaXtXaXaX4XaXaXaXpXpXuXpX4X).k d ).uX<XL.p q z p jXjXjXjXjXjXjXjXjXjXjX",
"jXjXjXjXjXjXjXjXjXjXjXjXw a e r N.T.uXyXP.a k I.3XaXsXaXaXaXaXaXaXaXpXeXwXwXeX#XG.j p W.<XuX:XC.r q h u jXjXjXjXjXjXjXjXjXjXjXjX",
"jXjXjXjXjXjXjXjXjXjXjXjXjXo g r e h L.,XdXhXP.g p A L.T.3X4XpXiX8XiX8XXX'.I.A a k W.1XuX<XY.h q e M.q jXjXjXjXjXjXjXjXjXjXjXjXjX",
"jXjXjXjXjXjXjXjXjXjXjXjXjXjXjXa p q p B.Y.1XuXuX;XA.h s a k h j j L d s a g C.T.yXuXhXT.B.r q a z o jXjXjXjXjXjXjXjXjXjXjXjXjXjX",
"jXjXjXjXjXjXjXjXjXjXjXjXjXjXjXjXe g r q p M.P.:XyXdXuX<X:XY.P.L.L.P.Y.;X,XuXuXyX,XY.N.r q r h a jXjXjXjXjXjXjXjXjXjXjXjXjXjXjXjX",
"jXjXjXjXjXjXjXjXjXjXjXjXjXjXjXjXjXjXp k r q r g C.P.[.,XyXyXuXuXuXuXuXhX<X:XY.C.g r q r h h X jXjXjXjXjXjXjXjXjXjXjXjXjXjXjXjXjX",
"jXjXjXjXjXjXjXjXjXjXjXjXjXjXjXjXjXjXjXo p g p e e e s g M.C.C.W.W.Z.N.B.g p e q e a g g w jXjXjXjXjXjXjXjXjXjXjXjXjXjXjXjXjXjXjX",
"jXjXjXjXjXjXjXjXjXjXjXjXjXjXjXjXjXjXjXjXjXjXr a a p r r e q q q q q q q e r a g h p o jXjXjXjXjXjXjXjXjXjXjXjXjXjXjXjXjXjXjXjXjX",
"jXjXjXjXjXjXjXjXjXjXjXjXjXjXjXjXjXjXjXjXjXjXjXjXjXe p p k g h g g h h g g a r X jXjXjXjXjXjXjXjXjXjXjXjXjXjXjXjXjXjXjXjXjXjXjXjX",
"jXjXjXjXjXjXjXjXjXjXjXjXjXjXjXjXjXjXjXjXjXjXjXjXjXjXjXjXjXjXjXjXjXjXjXjXjXjXjXjXjXjXjXjXjXjXjXjXjXjXjXjXjXjXjXjXjXjXjXjXjXjXjXjX",
"jXjXjXjXjXjXjXjXjXjXjXjXjXjXjXjXjXjXjXjXjXjXjXjXjXjXjXjXjXjXjXjXjXjXjXjXjXjXjXjXjXjXjXjXjXjXjXjXjXjXjXjXjXjXjXjXjXjXjXjXjXjXjXjX",
"jXjXjXjXjXjXjXjXjXjXjXjXjXjXjXjXjXjXjXjXjXjXjXjXjXjXjXjXjXjXjXjXjXjXjXjXjXjXjXjXjXjXjXjXjXjXjXjXjXjXjXjXjXjXjXjXjXjXjXjXjXjXjXjX",
"jXjXjXjXjXjXjXjXjXjXjXjXjXjXjXjXjXjXjXjXjXjXjXjXjXjXjXjXjXjXjXjXjXjXjXjXjXjXjXjXjXjXjXjXjXjXjXjXjXjXjXjXjXjXjXjXjXjXjXjXjXjXjXjX"
};
