/* XPM */
static char *_87b85c2ad1640bdd87f4381562fe2b3peFRDdSrcoLqsBK0[] = {
/* columns rows colors chars-per-pixel */
"64 64 250 2 ",
"   c None",
".  c #050404",
"X  c #120C0C",
"o  c #191615",
"O  c #12110F",
"+  c #261918",
"@  c #28241C",
"#  c #36291D",
"$  c #282523",
"%  c #362A26",
"&  c #3B332A",
"*  c #3B3D3C",
"=  c #383632",
"-  c #293535",
";  c #1F1F21",
":  c #473429",
">  c #4A3835",
",  c #583B34",
"<  c #452C25",
"1  c #4F2F1F",
"2  c #3D423C",
"3  c #4A433A",
"4  c #5A463A",
"5  c #58482D",
"6  c #634A38",
"7  c #76573C",
"8  c #6B5234",
"9  c #7A6333",
"0  c #183E60",
"q  c #4F3F42",
"w  c #3E4141",
"e  c #364D47",
"r  c #334E4B",
"t  c #174878",
"y  c #15426D",
"u  c #325671",
"i  c #3C666F",
"p  c #434444",
"a  c #474849",
"s  c #4A4C4C",
"d  c #4B4744",
"f  c #564946",
"g  c #59544A",
"h  c #4D4F50",
"j  c #4F5353",
"k  c #525354",
"l  c #5A5B5D",
"z  c #5A5757",
"x  c #455548",
"c  c #664B46",
"v  c #665748",
"b  c #765948",
"n  c #655A56",
"m  c #785955",
"M  c #714949",
"N  c #56635B",
"B  c #78634B",
"V  c #6A665A",
"C  c #766959",
"Z  c #75715D",
"A  c #5E5E60",
"S  c #695D67",
"D  c #596869",
"F  c #636464",
"G  c #6A6868",
"H  c #736A67",
"J  c #7B7463",
"K  c #7C796C",
"L  c #787469",
"P  c #6C6B72",
"I  c #766D77",
"U  c #787778",
"Y  c #6B7173",
"T  c #91693A",
"R  c #84593F",
"E  c #86564F",
"W  c #846248",
"Q  c #956D48",
"!  c #97734B",
"~  c #866B57",
"^  c #897559",
"/  c #977757",
"(  c #966850",
")  c #A37547",
"_  c #AC7650",
"`  c #836A68",
"'  c #897768",
"]  c #947C66",
"[  c #877A78",
"{  c #927073",
"}  c #A27572",
"|  c #915963",
" . c #7A8279",
".. c #A98548",
"X. c #B88849",
"o. c #A98558",
"O. c #B58955",
"+. c #B9975B",
"@. c #988469",
"#. c #878177",
"$. c #978775",
"%. c #8D8167",
"&. c #A78868",
"*. c #A8926D",
"=. c #B89866",
"-. c #A89577",
";. c #B69979",
":. c #AC8C6F",
">. c #BAA47A",
",. c #BBA368",
"<. c #988454",
"1. c #C89655",
"2. c #D3A45B",
"3. c #C59B66",
"4. c #C39D77",
"5. c #C9A66B",
"6. c #C8AC79",
"7. c #CCB47A",
"8. c #D4B678",
"9. c #D6B06D",
"0. c #E0BC7B",
"q. c #E9C67B",
"w. c #D6C27F",
"e. c #A5843F",
"r. c #265683",
"t. c #3B668E",
"y. c #507892",
"u. c #7C7B83",
"i. c #747490",
"p. c #507EA1",
"a. c #887B86",
"s. c #8D7D94",
"d. c #57889D",
"f. c #4F8C93",
"g. c #7B8386",
"h. c #6F8C93",
"j. c #5E89A4",
"k. c #6696AC",
"l. c #7697AA",
"z. c #6997B0",
"x. c #5CABAC",
"c. c #78A5B8",
"v. c #6AB1B4",
"b. c #65A499",
"n. c #7BC1B5",
"m. c #76B6C3",
"M. c #6FC2C2",
"N. c #878689",
"B. c #998B87",
"V. c #9B9489",
"C. c #8A8994",
"Z. c #968C95",
"A. c #8C9597",
"S. c #949394",
"D. c #98979A",
"F. c #A69889",
"G. c #B69A88",
"H. c #A79999",
"J. c #B49896",
"K. c #A98D8E",
"L. c #B8A589",
"P. c #A9A599",
"I. c #B8A997",
"U. c #9998A6",
"Y. c #9A99BB",
"T. c #8D90AA",
"R. c #A49CA8",
"E. c #A293AF",
"W. c #9AA6AA",
"Q. c #86A9B9",
"!. c #9AABB6",
"~. c #8BABB6",
"^. c #A8A8AA",
"/. c #B4A9A6",
"(. c #B7B3A8",
"). c #AAAAB3",
"_. c #A8B6BA",
"`. c #B3B3B5",
"'. c #BABBBD",
"]. c #B7B8B8",
"[. c #ADB0B2",
"{. c #9CA39A",
"}. c #C8AB84",
"|. c #CCB589",
" X c #D6BB87",
".X c #C3AA97",
"XX c #CAB897",
"oX c #D3BC95",
"OX c #C5B9A9",
"+X c #C6B8AD",
"@X c #D5AD88",
"#X c #86C7BA",
"$X c #BEC1BF",
"%X c #DBC286",
"&X c #DAC598",
"*X c #CCC18D",
"=X c #E7C989",
"-X c #E5CB94",
";X c #EAD398",
":X c #F2D996",
">X c #F1D48B",
",X c #F5E398",
"<X c #F5E08E",
"1X c #D9C9A7",
"2X c #D5CAB5",
"3X c #CEC9AF",
"4X c #EBD8AA",
"5X c #F1DCA7",
"6X c #E7D8B6",
"7X c #E1CDAC",
"8X c #F5E6A7",
"9X c #ECE2B7",
"0X c #F6EBB3",
"qX c #F5E8B9",
"wX c #F5EBB5",
"eX c #9C9DC4",
"rX c #96BBC8",
"tX c #90AFC6",
"yX c #A5B6C5",
"uX c #B9BBC3",
"iX c #A2A8D4",
"pX c #A4A5C7",
"aX c #C2BEC6",
"sX c #B7C5C9",
"dX c #A8C8D4",
"fX c #B6CCD4",
"gX c #BCD3D8",
"hX c #A7C7CE",
"jX c #A3DBD1",
"kX c #C2C3C5",
"lX c #C7C9CB",
"zX c #C8D5D8",
"xX c #D3D4D5",
"cX c #D3DBDD",
"vX c #DBDCDD",
"bX c #D0D5D9",
"nX c #CBD0CC",
"mX c #F2E7C4",
"MX c #C7DDE2",
"NX c #DADEE1",
"BX c #CAE2E6",
"VX c #D7E2E4",
"CX c #D0F6EC",
"ZX c #E3E4E4",
"AX c #ECECEC",
"SX c #E7E8E8",
"DX c #E7F9F3",
"FX c #F2F2F2",
"GX c #EFEFF0",
"HX c #DDE3CB",
/* pixels */
"                                                                                                                                ",
"                                                            FXFXFXFX                                                            ",
"                                                          FXFXAXFXFXFX                                                          ",
"                                                      GXGXGXFXSXAXFXFXAXFX                                                      ",
"                                                  AXGXAXGXAXNXeXeXcXAXAXAXAXAX                                                  ",
"                                              SXSXSXSXGXVXyXy.t t y.yXVXSXSXSXSXSX                                              ",
"                                            ZXZXZXZXVXuXp.r.y y y y r.p.uXZXZXZXZXZX                                            ",
"                                        vXZXvXvXZXlXl.r.t y u i.y.y y t r.l.zXVXvXvXZXNX                                        ",
"                                    vXvXvXvXvXzXQ.y.t y u h.T.!.!.A.y.u r.k.$XHXzXMXVXcXvXvX                                    ",
"                                xXxXxXxXxXnX!.y.r.t i d.Q._.hX2X2X3X3X[.^.1X=Xq.5.7.XXnXMXzXxXxX                                ",
"                              xXxXnXxXnXfXc.p.p.p.l._.3X&X&X:X<X>Xq.q.=Xq.=X=Xq.9.1.+.=.3XnXzXnXxXnX                            ",
"                          nXlXlXlXlXfXfX^.N.[ $.L.-X<X<Xq.<X<X<Xq.=X>X>Xq.q.q.q.9.1.3.2.2.5.|.nXzXlXnX                          ",
"                      lXlXkXkXlXzXdXyXD.' &.=.1.q.,X<X<X,X,X8X<X>X>X:X=X=X0.8.q.9.1.+.X.1.2.2.5.XXgXkXlXlX                      ",
"                  lXkXaXkXkXfX).S.S.B.#.@.>.8.=X:X:X,X,X,X0X8X<X>X:X:X>X=X0.9.9.8.O.) T X.X.X.1.3.+XgXsXsXkXkX                  ",
"              lXkXuX'.aX'.rX!.H N.S.D.V.F.>.-X4X5X0X5X8X8X0X8X:X>X>X=X=X0.8.8.9.7.+.e...X.X.O.O.o.*.(.fXsX+X'.uXkX              ",
"            kX'.'.'.uX_.l.z.C.u.R.R.R.P./.&X5X0X9X4X4X4X0X0X0X:X:X-X=X@X X X X X6.+.1.1.1.X.../ Q Q ( $.sXsX'.'.'.'.            ",
"          sX].].'.).Q.j.p.c.a.Z.R.R.^.+X+X6XqXqX5X7X4X0XqXqX0X8X;X=X%X=X%X Xw.7.5.o.+.X.) T ) Q 7 b B W F.fXsX].].'.'.          ",
"          '.'.'.Q.j.j.j.p.Y.Z.U.^.).'.aX6XmXwX9X5X4XqXqXqXwX0X:X=X=X%X%X8.|.7.6.G.*.o.+.T T ) Q 8 7 8 T O.L.rX~._.].'.          ",
"          ].`._.c.tXT.g.u.u.N.T.Y.).`.+X2X2X6X9X9XqXqXqXmXmXwX4X-X%X-X-X%X%X7.>.>.G.@.@.O.) 1._ B 8 5 8 ..:.[.z.!.].].          ",
"          `.`.sXW.G d & % f C.U.R.^.^./.OX3X2X6X6XmXqX0XwXmXmX4X:X:X;X;X;X=X X7.>.>.*.^ $.=.X.) b 8 # 5 ) &.F.c.!.].`.          ",
"          `.yXD.c f = - d S Z.R.Y.^.[.+X3X1X1X6XmXmXmXqXmXmX6X6X4X-X;X:X;X-X=X%X7.6.,.@.' -.O.W b 4 # 1 Q o.^.c.!.`.`.          ",
"          [.uXH n f % q n a.Z.R.^.pX].3X2X2X6X2X6XmXmXmX9X9X6X7X&X&X-X-XoX|. X Xw.7.7.*.] &.] W B 6 # 5 Q *.~.k.).^.[.          ",
"          )._.H n g q n I N.Z.E.).`.+X2X7X2X7X6X6XmXqX9X4X4X4X7X&X&X1XoX6.|.|.oX%X%X6.@.^ / $.~ B 6 5 9 e.:.l.k.!.^.^.          ",
"          ).).C f f z H U N.U.).`.`.OXOXOX1X1X6X6X9X9X4X6X4X4X1X&X&XXX6.7.oX&X%XoX X7.:./ ( &.^ v 8 6 T X.*.l.l.).^.^.          ",
"          [.).H f h G I G a.U.)././.J.J.G.|.oX1X6X9XmX4X;X;X;X&XXX*X|.}.|.-X7X;X%X X=X%X X:.@./ B B 8 8 9 ^ Q.c.!.^.^.          ",
"          !.^.[ n f I a.I N.^.^.H.s.V.F.L.G.XX1X9X5X9X5X5X:X-X X7. X6.}. X-X=X=X=X=X=X-X=X=X}.@.Z 6 5 5 B / W.c.!.D.W.          ",
"          ^.U.{ n f I s.C.U.^.{.V.B.F.I..X}.G.oX1X5X5X0X:X:X=X@X9.5.=.5.8.=X=Xw.9.9.8.8. X X}.G.] v 4 7 ! &.!.c.).D.{.          ",
"          W.D.` S n I N.Z.Z.H.H.P.L.L.>.;.}.G.G..XOX6X4X;X=X X8.9.4.3.3.9.8.9...T Q / _ O.,.5.=.<.5 5 <.&.$.~.c.!.S.D.          ",
"          W.S.H H I I N.Z.H.H.J.G.L.>.*.*.G.;.:.G.J.OXXXoXoX%X8.5.9.+.+.5.3.! 8 6 7 W W ! o.:.:.<.& 5 e.&.W.b.Q.W.S.S.          ",
"          W.A.l H I i.C.Z.H./.G.;.:.&.&.@.$.] / ] K.H./.G.oX X6.+.O./ Q / 5 & # : R ( ! / / / :.J 3 8 ! @.l.y.tXW.C.S.          ",
"          U.A.g P I Y u.Z.R.J.$.^ 4 & 3 & = 3 M m a.K.H.G.G.>.:...T 6 , 4 O . . + 7 B ^ ] ] :.-.' c B ~  .h.y.tX!.N.N.          ",
"          U.A.H S S P s.Z./.V.m = o . ; . . $ > M ` K.R.H.K.-.} ^ 7 < % > o O @ > n v b ' @.@.B.] B ~ ~ #.d.y.rXW.N.N.          ",
"          A.{. .P S i.C.H.J.' # o ; O . . . o # f ` H.R.).^.K.' 4 : < 4 g g V  .U L Y K S.S.V.$.^ C ~ ' {.x.f.rXW.g.N.          ",
"           .W.{.` I s.s.N.V 3 3 x N N x 2 2 3 3 f a.R.).uX).Z.I s 6 H '  .V F N. .N.C.N.S.D.nXF.v v B *.V.W.c.yXW.U g.          ",
"           .g.W.a.u.N.z d G A.v.#XjXjXn.v.2 2 g n U S.uXaX).D.u.L K V U #.K H G N.N.C.N.C.H.lX*X6 4 B ;.L.V.!.dXW.U U           ",
"          U g.].B.I l f 8 V b.#XCXCXCX#Xb.r - N L ` U Z.U.N.H n H Z V H K  . .V F Y U U S.Z.OX;.C v %.|.-XL.{.dXU.Y U           ",
"          Y g.^.s.S > M , 6 #.CXCXCXCXn.f.r 2 D H n %.H { I n ' V G V L L K #.H F #.F H A.S.F.6 3 v -.*X&X*X(.dXU.P Y           ",
"          P g./.[ S < , , , ` CXDXCXn.b.f.r 2 Z Z C %.V..Xs.S H Z Z L K K K #.K L N.U u.N.$.Z $ g %.%.-.|.*X3XgX{.P Y           ",
"          P U _.P.S > 6 < , c $XCX#XM.x.f.r 3 J Z J K $..Xs.` c J J K L K K K U G N.C.a.H h $ ; V %.] %.F.L.OXgXA.G G           ",
"          F F A.(.m q 6 % 4 c U #XM.M.v.D - a J J K Z ) 1.O.( 1 v Z Z V C  .K L z z l l 3 ; O = Z %.$.$.$.V.(.gXU.F G           ",
"          F A C.hX#.3 { 6 4 c  .M.M.M.x.u - x Z J Z B ) Q T R 1 % V J J Z L Z V x = ; $ ; O o s K $.$.$.$.V.^.MXA.A F           ",
"          A A g.BXhXD [ W , 6 H v.M.x.x.- 2 V L Z v c W E M , 1 + % V Z N g j d = $ o O O O $ V ' ' %.%.$.$.P.MXA.l A           ",
"          l z g.BXc.y.e b 4 6 c D h.b.i - 2  .Z C 3 : : 1 < X o + 5 B v 4 2 % o ; o o O O @ f H B C Z Z J ~ K.MXA.z A           ",
"          l z g.BXc.y.i > 6 6 f 4 3 j r & N  .Z v > X X + X . X + m ;.] n = @ + o O o o % d m c g 6 v c m E G.VXA.k l           ",
"          k k u.BX~.d.f.u * 4 5 5 & & & 3 V V Z &.m $ X X X X X % ' .X.X.X[ C n s f n V V g f 6 4 6 f v m ( @XSXC.k z           ",
"          k k U gXMX~.k.f.i - 2 x 2 & # 2 g Z -.XX&.> O X X o $ d { G.OXOX3X/./.(.F.{ H f 4 > > 4 v M E | K.aXVXN.k k           ",
"          A Y G Y ).MXjXc.d.y.i i j x g L V.(.OXoX;.~ > % + $ f n m m s./.OX/./.^.{.[ S f q , c m | | } +XcXzXA.D G F           ",
"          Y A h s k u.uXBXhXz.d.v.[.D.P.OX3X(.(.+XL.*.' m > > f f : f } J.I.J.R.pXY.T.s.I S S | | } J.bXBXW.Y j j k F           ",
"              z j h s l C.gXBXrXrXW.D.(.]./.R./.(./.F.V.` > > > q c a.K.K.K.B.E.iXiXiXs.s.s.a.} J.lXVXuXU k h h h               ",
"                  k h s s F W.zXBX_.S.D.R.Z.D.R.H.Z.Z.Z.N.S S I a.Z.K.Z.Z.Z.B.C.iXiXiXeXs.s.E.kXMXfXC.z s h h h                 ",
"                      j s s s Y _.MXsXW._.).U.W.U.N.[ C.C.E.R.R.U.Z.B.D.U.U.U.T.eXiXeXs.E.aXMXzXA.F s s s s                     ",
"                        j s s s k g.hXBXgXjX_.rXm.W.P P u.s.Z.D.Z.Z.E.Y.pXY.E.Y.eXs.E.uXvXNX).G h a a s                         ",
"                            s s a a l A.gXBXdXc.k.rX~.Q.~.~.Y.h.g.T.eXiXiXeXeXY.s.E.aXZX'.U h a a s s                           ",
"                                s a a a F W.cXgXQ.x.z.v.x.tXeXT.i.i.T.eXiXiXY.R.aXNXlXs.k a e a a                               ",
"                                  s a a p s Y ].BXfXQ.k.x.v.rXT.i.i.T.eXtXiXuXcXzXT.A a p a a                                   ",
"                                      a a p w j N.sXBXhXc.k.m.tXi.i.i.h.pXMXcX!.P q p w p                                       ",
"                                          a p p p z A.nXzXrXm.rXs.i.T.sXcX].U s w w p p                                         ",
"                                              p w w a D [.bXzXfXiXfXcXkXN.j w 2 w p                                             ",
"                                                p p w * a U '.BXVXbXU.z w w 2 w                                                 ",
"                                                    w w * 2 j D.uXS w * * 2                                                     ",
"                                                        w 2 * G G * * * *                                                       ",
"                                                            * A F * *                                                           ",
"                                                              s k                                                               ",
"                                                                                                                                "
};
