/* XPM */
static char *_1500_0b56a7683fa9a079ea795ced8f7ed2287030b1c365c8d4c295edacfb64e4072c[] = {
/* columns rows colors chars-per-pixel */
"64 64 256 2 ",
"   c #053300",
".  c #1E3C37",
"X  c #5D2D00",
"o  c #6D3903",
"O  c #74162B",
"+  c #63262F",
"@  c #105704",
"#  c #1B6E0D",
"$  c #367F17",
"%  c #33533A",
"&  c #26433C",
"*  c #774E0F",
"=  c #735C39",
"-  c #13126C",
";  c #30106C",
":  c #1A1A67",
">  c #4F0A75",
",  c #355B57",
"<  c #2F5048",
"1  c #3A6351",
"2  c #3A6F63",
"3  c #4C4C4D",
"4  c #464447",
"5  c #495755",
"6  c #535353",
"7  c #5B5B5B",
"8  c #56585A",
"9  c #524D51",
"0  c #436A48",
"q  c #487053",
"w  c #635E64",
"e  c #5E6261",
"r  c #44756D",
"t  c #457A76",
"y  c #4E736A",
"u  c #646464",
"i  c #6B6B6C",
"p  c #66676A",
"a  c #6C6E75",
"s  c #6C7474",
"d  c #747374",
"f  c #7A7B7B",
"g  c #747878",
"h  c #6F6F70",
"j  c #6E5156",
"k  c #8C1831",
"l  c #97213D",
"z  c #97681E",
"x  c #926320",
"c  c #8C3249",
"v  c #B53D5B",
"b  c #B45770",
"n  c #9F6879",
"m  c #975564",
"M  c #2E8414",
"N  c #2F9430",
"B  c #1F8826",
"V  c #45951D",
"C  c #52AB2C",
"Z  c #5CAE2F",
"A  c #6ACD32",
"S  c #52C73B",
"D  c #4C8B59",
"F  c #55935A",
"G  c #4BBA58",
"H  c #5B977C",
"J  c #548972",
"K  c #78867A",
"L  c #6A9575",
"P  c #57AE6E",
"I  c #6ABC7C",
"U  c #66B878",
"Y  c #6BAF74",
"T  c #3AC861",
"R  c #4FC34E",
"E  c #57C773",
"W  c #6DC27C",
"Q  c #74C57C",
"!  c #77C87D",
"~  c #70D170",
"^  c #67D654",
"/  c #2FA947",
"(  c #A6843A",
")  c #90916F",
"_  c #AAA361",
"`  c #1A1C85",
"'  c #252592",
"]  c #3538A8",
"[  c #570E84",
"{  c #6E239F",
"}  c #476F92",
"|  c #757B84",
" . c #454CAE",
".. c #6367B4",
"X. c #605599",
"o. c #5570CA",
"O. c #6C7DD5",
"+. c #5457C8",
"@. c #8239B9",
"#. c #997787",
"$. c #973EC4",
"%. c #904BC7",
"&. c #936CCB",
"*. c #4D8A87",
"=. c #538C86",
"-. c #599789",
";. c #559C9A",
":. c #579A94",
">. c #4D9893",
",. c #798686",
"<. c #7C9786",
"1. c #729595",
"2. c #54A29B",
"3. c #5BA49C",
"4. c #5CA79B",
"5. c #5BB28E",
"6. c #65A887",
"7. c #6AB986",
"8. c #72BE88",
"9. c #63AC9C",
"0. c #64A59A",
"q. c #6AB698",
"w. c #73BA97",
"e. c #77A791",
"r. c #539BA0",
"t. c #7497B0",
"y. c #5BA5A3",
"u. c #5EAAA2",
"i. c #5DA8AC",
"p. c #5EB1AA",
"a. c #62ADA4",
"s. c #62AEAB",
"d. c #6AA9A6",
"f. c #78A9A6",
"g. c #65B1A5",
"h. c #6AB4A4",
"j. c #65B2AB",
"k. c #6AB5AC",
"l. c #6DB9AD",
"z. c #74BCAD",
"x. c #75B5A9",
"c. c #62AEB4",
"v. c #6BB6B3",
"b. c #6DBBB2",
"n. c #69B7BA",
"m. c #73BCB4",
"M. c #76BAB7",
"N. c #78ABBA",
"B. c #6CC284",
"V. c #7ACB83",
"C. c #76C686",
"Z. c #7DD185",
"A. c #78C497",
"S. c #6AC79A",
"D. c #78C3A8",
"F. c #77C4BB",
"G. c #73CBAB",
"H. c #5DDB8B",
"J. c #5E89CD",
"K. c #6EBBC3",
"L. c #73BCC7",
"P. c #74B5D9",
"I. c #6CA6D2",
"U. c #70ADE3",
"Y. c #78C4C7",
"T. c #7DD4C7",
"R. c #7BC7D5",
"E. c #6FC5C3",
"W. c #848384",
"Q. c #8C8C8C",
"!. c #858A89",
"~. c #898C94",
"^. c #948C93",
"/. c #8A9898",
"(. c #949494",
"). c #9C9C9C",
"_. c #979899",
"`. c #8E908D",
"'. c #AC969D",
"]. c #89A88C",
"[. c #8BA894",
"{. c #96A59A",
"}. c #89B895",
"|. c #92B694",
" X c #969BA3",
".X c #A39FA1",
"XX c #9CA5A7",
"oX c #8AB5AA",
"OX c #86B7B4",
"+X c #91B3AC",
"@X c #A4A4A4",
"#X c #ABABAB",
"$X c #A6A6AA",
"%X c #A9B3BA",
"&X c #B3B3B3",
"*X c #BCBCBD",
"=X c #B7B7B8",
"-X c #ADADB0",
";X c #A0A09F",
":X c #89C896",
">X c #87D594",
",X c #8ACF92",
"<X c #8BD4B9",
"1X c #8DCAAD",
"2X c #8AE4AF",
"3X c #A3CFB2",
"4X c #918DD1",
"5X c #83BBC8",
"6X c #92A7D3",
"7X c #ABB7C2",
"8X c #B4BCC5",
"9X c #AF90EE",
"0X c #C0BEC0",
"qX c #85C8C8",
"wX c #88D4C8",
"eX c #82CDD4",
"rX c #88D4D7",
"tX c #96DAD8",
"yX c #BEC3C7",
"uX c #BAC8D6",
"iX c #A4D8D8",
"pX c #91E4D1",
"aX c #8CCBE7",
"sX c #9BE4E5",
"dX c #9EE4F0",
"fX c #ABF3F2",
"gX c #B5D4F8",
"hX c #C3C3C3",
"jX c #CBCBCB",
"kX c #C5C8C8",
"lX c #CCD2D7",
"zX c #D4D4D4",
"xX c #DCDCDC",
"cX c #D6D7D9",
"vX c #D0D0CF",
"bX c #C9DAE8",
"nX c #D9DDE2",
"mX c #D4E3EE",
"MX c #DBE4EA",
"NX c #D3E5F3",
"BX c #DDE9F2",
"VX c #DAE7F0",
"CX c #CFE2F3",
"ZX c #E3E4E4",
"AX c #E5E9ED",
"SX c #EBECED",
"DX c #E5E7E9",
"FX c #F1F1EF",
"GX c #E3EBF1",
"HX c #ECEFF1",
"JX c #EEF0F1",
"KX c #F3F3F2",
"LX c #F8F9F7",
"PX c #E0E1DF",
"IX c #E693AC",
"UX c None",
/* pixels */
"UXUXUXUXUXUXUXUXUXUXUXUXUXUXUXUXUXUXUXUXUXUXUXUXUXUXUXUXUXUXUXUXUXUXUXUXUXUXUXUXUXUXUXUXUXUXUXUXUXUXUXUXUXUXUXUXUXUXUXUXUXUXUXUX",
"UXUXUXUXUXUXUXUXUXUXUXUXUXUXUXUXUXUXUXUXUXUXUXUXUXUXUXUXUXUXUXUXUXUXUXUXUXUXUXUXUXUXUXUXUXUXUXUXUXUXUXUXUXUXUXUXUXUXUXUXUXUXUXUX",
"UXUXUXUXUXUXUXUXUXUXUXUXUXUXUXUXUXUXUXUXUXUXUXUXUXUXUXUXUXUXUXUXUXUXUXUXUXUXUXUXUXUXUXUXUXUXUXUXUXUXUXUXUXUXUXUXUXUXUXUXUXUXUXUX",
"UXUXUXUXUXUXUXUXUXUXUXUXUXUXUXUXUXUXUXUXUXUXUXUXUXUXUXUXUX8 g g f f u UXUXUXUXUXUXUXUXUXUXUXUXUXUXUXUXUXUXUXUXUXUXUXUXUXUXUXUXUX",
"UXUXUXUXUXUXUXUXUXUXUXUXUXUXUXUXUXUXUXUXUXUXUXUXw u u e e 7 7 7 7 w 7 u p h i p UXUXUXUXUXUXUXUXUXUXUXUXUXUXUXUXUXUXUXUXUXUXUXUX",
"UXUXUXUXUXUXUXUXUXUXUXUXUXUXUXUXUXUXUXUXUX8 p u 7 8 7 7 u i h d d h p u 7 6 8 7 p d u UXUXUXUXUXUXUXUXUXUXUXUXUXUXUXUXUXUXUXUXUX",
"UXUXUXUXUXUXUXUXUXUXUXUXUXUXUXUXUXUXUX7 p 7 6 7 i n /.{.#X&X&X*X*X&X&X#X{.`.n y 8 6 w h i UXUXUXUXUXUXUXUXUXUXUXUXUXUXUXUXUXUXUX",
"UXUXUXUXUXUXUXUXUXUXUXUXUXUXUXUXUX6 p 7 8 i W._.&XkXcXDXFXFXKXKXKXKXKXKXSXPXvX=X).W.u 6 7 d p UXUXUXUXUXUXUXUXUXUXUXUXUXUXUXUXUX",
"UXUXUXUXUXUXUXUXUXUXUXUXUXUXUXUXi w 6 i W.@XkXPXKXKXMXjX&X X(.^.`.(.).-XhXnXHXKXZXjX#X!.p 9 u d UXUXUXUXUXUXUXUXUXUXUXUXUXUXUXUX",
"UXUXUXUXUXUXUXUXUXUXUXUXUXUX6 p 6 u ) XXjXDXKXnX&XW.i e a | ,.,.~.,.| a p a f $XzXFXFXzX#XW.e 9 d u UXUXUXUXUXUXUXUXUXUXUXUXUXUX",
"UXUXUXUXUXUXUXUXUXUXUXUXUX7 u 6 d (.8XZXKXzX^.p p ~.7XuXbXbXCXNXCXCXCXbXuX7X/.a u !.0XjXhX&X^.d 9 i i UXUXUXUXUXUXUXUXUXUXUXUXUX",
"UXUXUXUXUXUXUXUXUXUXUXUXe 7 8 W..XzXKXPX_.w | %XbXCXNXNXNXNXCXbXbXbXCXCXNXNXNXbX8X| 9 f [.OX=X_.f 3 w g UXUXUXUXUXUXUXUXUXUXUXUX",
"UXUXUXUXUXUXUXUXUXUXUXe w 7 W.#XZXFX*Xp s 8XmXNXNXNXmXmXCXuX8X7X7X8XuXlXNXbXbXVXBXuX,.y . 2 oX@X).d 3 7 d UXUXUXUXUXUXUXUXUXUXUX",
"UXUXUXUXUXUXUXUXUXUX7 e 7 W.&XDXSX).7 XXnXBXVXVXNXNXVXmX7XXXOXd.a.d.M.yXbXBXmXVXbX X/.q.t & s OXx.e.,.6 7 d UXUXUXUXUXUXUXUXUXUX",
"UXUXUXUXUXUXUXUXUX3 u 8 W.-XSXZX!.p yXBXBXVXVXVXVXVXBX%X Xj.2.2.;.2.>.x.8XbXMXVX7X+Xz.y.4.>.< , -.4.=.!.4 h u UXUXUXUXUXUXUXUXUX",
"UXUXUXUXUXUXUXUXUXp 5 #.$XZXDX) h bXGXBXBXBXBXBXAXmX8X^.x.2.3.y.4.y.4.2.+X%XkXuX| }.C.w.v.p.s., < :.B.].h 3 d UXUXUXUXUXUXUXUXUX",
"UXUXUXUXUXUXUXUXu 8 d ).PXSX!.d cXGXGXGXBXGXGXBXlX$X+Xx.j.s.p.j.j.g.u.u.a.h.m.%X~.OXD.A.x.w.A.q., , Y :X(.h 9 f UXUXUXUXUXUXUXUX",
"UXUXUXUXUXUXUX6 e y `.jXKX;Xp lXGXGXSXGXAXAXAXlXXXoXu.4.4.j.j.k.v.g.p.u.u.g.p.m.F.p.p.j.C.8.! C.6.% 0 @X&X_.8 u p UXUXUXUXUXUXUX",
"UXUXUXUXUXUXUXp 8 n &XFXhXu yXHXGXSXGXGXSXSXMX@X+Xg.3.a.k.k.b.k.g.g.p.g.b.b.v.v.D.z.f.~.^.^.| t H J < e =X0X| 9 g UXUXUXUXUXUXUX",
"UXUXUXUXUXUX8 7 p _.PXZXi ).HXSXSXHXSXSXSXJXlX(.:X4.9.g.b.k.m.N.t.4X6XN.qXb.b.m.z.oX#.v c c m #.1.h.-.& {.jX#Xe 7 i UXUXUXUXUXUX",
"UXUXUXUXUXUXp 8 W.*XKX;Xh MXHXHXGXSXSXSXAXHX8X!.>Xu.a.j.j.M.I.&.{ { &.9X5XM.M.v.z.) c O O k l b (.0.*.& q kXjX) 9 d UXUXUXUXUXUX",
"UXUXUXUXUXUXe u _.PXxXp =XHXZXZXSXSXGXSXGXZX;X|.A.j.a.k.j.OX4X[ [ { [ %.6XqXY.b.9.m l O IXb k v p y *.J < {.cX#X7 u i UXUXUXUXUX",
"UXUXUXUXUXw 7 f =XKX;Xd cXyX8XhXjXnXSXAXFXkX_.>Xh.k.l.z.m.5X&.[ { %.; { 4Xx.D.qXw.j v l + c l b d f.a.a.q K zXjXg 6 g UXUXUXUXUX",
"UXUXUXUXUXu 7 Q.zXZXa ;X&X+Xz.x.3XkXZXSXFX8X[.Z.h.a.l.F.Y.qX6X%.> > > &.6X:Xw.w.I g c O O k v n !.f.d.w.Y h hXPX(.9 h UXUXUXUXUX",
"UXUXUXUXUX7 p @XDX0Xu ^.[.b.k.4.4.3XzXJXJX&X,.>Xq.v.k.F.wXtXaX4XX.&.9XgX<X! ,X~ q.OX^.n j n '.^.1.d.w.! ,Xp ).FX&Xe u u UXUXUXUX",
"UXUXUXUX7 7 d =XFX_.s /.+XF.h.a.q.:X*XMXvX X/.1Xz.b.l.F.<X<XiX X/.gXiX:XY ,X>X1Xv.E.OXoXp ,.+Xf.9.j.w.Q ,XK d SXhXd 6 d UXUXUXUX",
"UXUXUXUXw 8 ) kXSXs 2 D.qXl.g.g.h.:X&X#X_.1Xg.s.k.k.0.d.L.<X>XF L 2X:Xe.-.-.tXT.5.S.S.S.J 0.Y.9.0.j.x.! Q }.u zXxXW.6 d UXUXUXUX",
"UXUXUXUXw 7 ~.cXxX5 -.F.F.l.h.g.a.h.g.1X+X4.9.z.F.0.:.tXrXrXfXf.z.fXtXqXf.k.2XE C A ^ ^ D U <X9.9.m.C.! ~ }.e 0XZX(.6 h UXUXUXUX",
"UXUXUXUXu w (.ZXjX5 h.F.b.k.p.g.9.8.6.:XM.a.s.D.M.=.wXsXrXqXsXd.5XfXqXy.qX2X~ C A M C A N P >Xa.a.M.A.! C.1Xj XXSX@X8 i UXUXUXUX",
"UXUXUXUX8 u ;XSX=X5 k.k.k.u.>.*.H Y Y 6.3.s.v.v.=.0.rXtXrXY.sXt.qXfXtXtXsXH.$ @ B B @ M Z G ~ L x.l.k.x.h.x.K (.xX#X8 p i UXUXUX",
"UXUXUXUXu u ;XSX-X0 A.,Xw.H J 6.:XM.k.4.*.a.F.s.} wXT.wX<XqXsXr.5XdXsXsXpX^ @   / H.N M $ F P P Q w.a.a.a.a., L kX$Xe e n UXUXUX",
"UXUXUXUXu p @XFX#X1 ! P F Y ! Z.D.y.0.=.:.A.k.*.f.wXD.A.tXL.P.} U.aXaXeXT.~ C # # T N @ $ C P D.C.! w.a.g.m., 1 3X;Xe e K UXUXUX",
"UXUXUXUXu u .XSX#Xq Z.<.}.>X>X3X=.r t -.a.,X6.=.qX1XF wXaXI.J.} o.O.} } =.U C M # @ @ M A R H.c.S.W 8.4.;.9.q , D._.7 u f UXUXUX",
"UXUXUXUXu w ;XSX&Xe [.p W.@Xp g y t -.a.j.8.D 7.>X! V.rXaXJ. .: - - ]  .} 2 C V C C A A R E S.n.h.I 7.9.y.r.1 r w.].9 i f UXUXUX",
"UXUXUXUXe e ;XDX=X8 $X/.xXcXw K q.s.h.;.c.H D ! V.A.:XY.U.o.: - ] ] - ] o.r.-.G S S R R E p.G.n.s.I I 9.;.;.1 y C.].9 i u UXUXUX",
"UXUXUXUXu 7 (.xXjXh yX$XLXcX).>XG.m.:.;.;.r C.,XC.9.r d.U.o.- - O. .- ' o.I.E.G.5.5.H.H.S.F.n.c.j.I U 9.u.0.< F Q L 9 i UXUXUXUX",
"UXUXUXUXu 7 !.zXxXh $X#XKX&X|.Z.0.=.*.b.*.t 1X! H a.=.J OX..: - - ` ' +.J.U.E.R.rXE.F.F.E.E.n.K.j.7.7.y.y.;.% Y I L 4 d UXUXUXUX",
"UXUXUXUXu 8 f hXSXf #.&XDX;Xe.D J =.u.4.r :.D.I i.j.f.= * + +.` ' ] +.o.I.R.R.R.sXrXrXrXR.K.K.c.q.U 7.i.c.t % I I g 3 d UXUXUXUX",
"UXUXUXUX8 7 i &XSXXX5 %XMX~.L Y a.;.y.>.r n.A.6.M.M._ z o x = a +.o.J.U.U.R.dXR.rXeXR.R.Y.n.c.s.U U 5.y.p.2 0 ! |.6 7 d UXUXUXUX",
"UXUXUXUXUXu 7 _.ZXkX3 XXJX~.Y W q.3.u.>.2 d.6.w.Y.<X_ z o ( x o !.I.U.R.R.rXR.rXeXeXY.Y.L.n.c.9.U U 7.i.4.% D ,X!.4 p u UXUXUXUX",
"UXUXUXUXUXi 6 W.jXSXu Q.LX(.e.W 7.3.2.:.J 2 >.c.c.M.) z x * X = {.5XY.eXeXR.Y.Y.E.L.L.K.n.i.s.7.U U 7.q.F % Y :Xn < f UXUXUXUXUX",
"UXUXUXUXUXu 7 i #XFX#Xi DX$X,.,XI 0.:.:.r.>.4.d.i.n.h.) _ z x _ x.Y.Y.L.Y.L.M.Y.Y.Y.Y.j.i.j.7.U U 7.w.U 0 q ! [.7 6 g UXUXUXUXUX",
"UXUXUXUXUXUXu 7 `.cXPXd =XkXa :X! C.q.0.:.;.9.7.i.s.i.h.}.].}.x.n.L.L.K.Y.n.K.M.F.m.b.y.y.8.I I Q 8.W F % Y |.d 4 h 7 UXUXUXUXUX",
"UXUXUXUXUXUXi 6 d &XFX#Xp %X X| :XV.I q.3.4.w.Q q.u.y.i.c.n.7.7.q.q.l.b.j.s.h.q.k.i.r.r.4.I 7.C.8.I P q K {.Q.u 6 f UXUXUXUXUXUX",
"UXUXUXUXUXUXUXp 8 `.zXSXd | bX-Xa /.V.U U 7.I U I 7.9.j.k.M.n.q.A.I U U 7.Q 8.a.y.y.9.q.C.B.V.B.U W J s (.*X^.9 h u UXUXUXUXUXUX",
"UXUXUXUXUXUXUXi 6 i $XDXvXe $XNX8X| <.w.8.7.B.B.B.7.I I A.m.k.k.m.B.I U 7.x.y.;.u.q.C.! I :X}.e.}.<.7 (.xX8Xp 6 f UXUXUXUXUXUXUX",
"UXUXUXUXUXUXUXUXi 5 #.*XHX&Xe yXHXlX_.~.`././.!.,.}.Q ! I 8.C.8.! Q Q I C.A.q.7.7.I U I :X~.|  X~.4 ) MXvX) 3 f 8 UXUXUXUXUXUXUX",
"UXUXUXUXUXUXUXUXe e 8 Q.vXSX).u vXKXSXvXyX8XhXkX~.) >X! W I ! ! Q ! Q V.! ! Q I U I 8.[..XyXnXkXp W.DXxX_.9 w g UXUXUXUXUXUXUXUX",
"UXUXUXUXUXUXUXUXUXi 6 u _.cXSX(.u jXKXKXFXFXLXLXZX_.Q.:X,X,X! V.C.,X,X! ! ! Q W ,X|.).$XzXFXxXd #.PXPXXX7 5 K UXUXUXUXUXUXUXUXUX",
"UXUXUXUXUXUXUXUXUXUXd 6 i ;XxXSX).e =XFXFXFXFXFXSXZX&X_.(.!.].[.[.) ].|.:X,X:X|.{.#XvXFXFXhXu W.MXPX-Xu 3 #.9 UXUXUXUXUXUXUXUXUX",
"UXUXUXUXUXUXUXUXUXUXUXi 3 i ;XcXSX&Xu `.xXFXFXFXSXFXFXZXxXvX*X*XhXhX#X)._.).@X#XjXFXLXZX).e ).ZXPX#Xi 3 f 8 UXUXUXUXUXUXUXUXUXUX",
"UXUXUXUXUXUXUXUXUXUXUX9 d 3 i _.vXFXvXf i #XZXFXKXKXFXFXLXKXFXKXKXKXFXFXxXxXZXSXFXSX*Xd i 0XSXxX@Xu 4 K p UXUXUXUXUXUXUXUXUXUXUX",
"UXUXUXUXUXUXUXUXUXUXUXUX3 h 6 w Q.*XZXZX#Xi d @XxXSXKXKXLXKXFXFXFXKXFXSXKXKXSXzX$Xg p ).xXSXkX(.7 3 f p UXUXUXUXUXUXUXUXUXUXUXUX",
"UXUXUXUXUXUXUXUXUXUXUXUXUXUXd 6 6 f #XzXFXxX#Xd w ) @X0XxXZXSXVXDXDXnXzX0X#XW.p h ).zXFXxX&Xf 3 8 W.8 UXUXUXUXUXUXUXUXUXUXUXUXUX",
"UXUXUXUXUXUXUXUXUXUXUXUXUXUXUXh u 9 w !.&XxXSXDXhX).f i i d f n | g h p i d (.*XPXSXxX*XQ.7 3 i ) UXUXUXUXUXUXUXUXUXUXUXUXUXUXUX",
"UXUXUXUXUXUXUXUXUXUXUXUXUXUXUXUX7 d 7 3 u W.#XjXDXHXDXxXjX&X$X@X$X#X&XhXzXZXFXDXvX&XQ.w 3 8 K g UXUXUXUXUXUXUXUXUXUXUXUXUXUXUXUX",
"UXUXUXUXUXUXUXUXUXUXUXUXUXUXUXUXUXUXh h 7 9 7 d (.#XhXcXPXDXSXSXSXSXSXZXzXjX&X(.d 7 3 7 d n 3 UXUXUXUXUXUXUXUXUXUXUXUXUXUXUXUXUX",
"UXUXUXUXUXUXUXUXUXUXUXUXUXUXUXUXUXUXUXUXi h u 6 9 7 u d W.`.(.{..X_.`.W.d p 6 3 6 u g f 5 UXUXUXUXUXUXUXUXUXUXUXUXUXUXUXUXUXUXUX",
"UXUXUXUXUXUXUXUXUXUXUXUXUXUXUXUXUXUXUXUXUXUXu d i u 7 6 6 9 3 6 3 3 9 9 6 7 p d f h UXUXUXUXUXUXUXUXUXUXUXUXUXUXUXUXUXUXUXUXUXUX",
"UXUXUXUXUXUXUXUXUXUXUXUXUXUXUXUXUXUXUXUXUXUXUXUXUX7 i i h d K g d f f d n d p UXUXUXUXUXUXUXUXUXUXUXUXUXUXUXUXUXUXUXUXUXUXUXUXUX",
"UXUXUXUXUXUXUXUXUXUXUXUXUXUXUXUXUXUXUXUXUXUXUXUXUXUXUXUXUXUXUXUXUXUXUXUXUXUXUXUXUXUXUXUXUXUXUXUXUXUXUXUXUXUXUXUXUXUXUXUXUXUXUXUX",
"UXUXUXUXUXUXUXUXUXUXUXUXUXUXUXUXUXUXUXUXUXUXUXUXUXUXUXUXUXUXUXUXUXUXUXUXUXUXUXUXUXUXUXUXUXUXUXUXUXUXUXUXUXUXUXUXUXUXUXUXUXUXUXUX",
"UXUXUXUXUXUXUXUXUXUXUXUXUXUXUXUXUXUXUXUXUXUXUXUXUXUXUXUXUXUXUXUXUXUXUXUXUXUXUXUXUXUXUXUXUXUXUXUXUXUXUXUXUXUXUXUXUXUXUXUXUXUXUXUX",
"UXUXUXUXUXUXUXUXUXUXUXUXUXUXUXUXUXUXUXUXUXUXUXUXUXUXUXUXUXUXUXUXUXUXUXUXUXUXUXUXUXUXUXUXUXUXUXUXUXUXUXUXUXUXUXUXUXUXUXUXUXUXUXUX"
};
