<?xml version="1.0" standalone="no"?>
<!DOCTYPE svg PUBLIC "-//W3C//DTD SVG 20010904//EN"
 "http://www.w3.org/TR/2001/REC-SVG-20010904/DTD/svg10.dtd">
<svg version="1.0" xmlns="http://www.w3.org/2000/svg"
 width="1000.000000pt" height="640.000000pt" viewBox="0 0 1000.000000 640.000000"
 preserveAspectRatio="xMidYMid meet">

<g transform="translate(0.000000,640.000000) scale(0.100000,-0.100000)"
fill="#000000" stroke="none">
<path d="M0 3200 l0 -3200 5000 0 5000 0 0 3200 0 3200 -249 0 c-240 0 -249
-1 -254 -20 -3 -11 -13 -20 -22 -20 -9 0 -19 9 -22 20 -5 20 -14 20 -4729 20
l-4724 0 0 -3200z m2018 3137 c4 -20 -25 -34 -40 -19 -15 15 -1 44 19 40 10
-2 19 -11 21 -21z m1722 -41 c0 -22 -29 -41 -42 -28 -8 8 -8 15 2 27 16 19 40
20 40 1z m5075 -101 c0 -22 -31 -33 -47 -17 -17 17 -1 44 24 40 15 -2 23 -10
23 -23z m-8485 -30 c26 -31 -13 -82 -44 -56 -21 18 -20 48 2 60 23 14 28 13
42 -4z m7891 -215 c22 -12 25 -42 6 -58 -10 -9 -19 -7 -35 4 -25 17 -28 34
-10 52 15 15 15 15 39 2z m-2343 -112 c30 -30 -11 -85 -44 -57 -25 21 -11 69
21 69 6 0 16 -5 23 -12z m-4613 -34 c0 -10 -8 -20 -17 -22 -18 -3 -26 27 -11
42 12 11 28 0 28 -20z m8500 -164 c0 -20 -6 -26 -28 -28 -18 -2 -29 2 -33 12
-11 28 4 48 33 44 22 -2 28 -8 28 -28z m35 -69 c15 -29 12 -41 -10 -41 -23 0
-35 22 -26 45 8 21 23 19 36 -4z m-1370 -71 c0 -33 -19 -40 -40 -15 -16 20 -5
45 20 45 16 0 20 -7 20 -30z m-4701 -24 c9 -11 10 -20 1 -35 -21 -40 -79 -15
-65 29 7 24 46 27 64 6z m-3101 -219 c4 -20 -25 -34 -40 -19 -15 15 -1 44 19
40 10 -2 19 -11 21 -21z m672 -232 c16 -19 4 -35 -26 -35 -17 0 -24 6 -24 18
0 34 28 43 50 17z m1830 -105 c0 -15 -7 -30 -15 -34 -14 -5 -45 18 -45 34 0
16 31 39 45 34 8 -4 15 -19 15 -34z m1060 15 c16 -20 6 -43 -25 -55 -43 -16
-73 10 -60 51 8 24 67 26 85 4z m3390 -140 c0 -8 -7 -15 -15 -15 -8 0 -15 7
-15 15 0 8 7 15 15 15 8 0 15 -7 15 -15z m-5712 -101 c4 -25 -39 -49 -57 -31
-15 15 -14 44 2 51 25 10 52 1 55 -20z m7277 -49 c0 -25 -4 -30 -24 -30 -28 0
-47 25 -38 49 5 12 16 16 34 14 24 -3 28 -8 28 -33z m-1180 -115 c3 -5 1 -10
-4 -10 -6 0 -11 5 -11 10 0 6 2 10 4 10 3 0 8 -4 11 -10z m-6345 -225 c10 -13
10 -19 -5 -35 -22 -24 -31 -25 -39 -4 -16 41 18 70 44 39z m2845 -1 c34 -16
65 -65 65 -102 0 -11 -12 -34 -26 -51 -47 -56 -142 -50 -163 10 -8 23 -16 29
-39 29 -80 0 -117 -82 -117 -255 1 -106 6 -139 40 -277 l39 -158 36 6 c69 11
190 -13 271 -54 l76 -38 34 65 c33 64 35 66 69 63 19 -2 36 -5 38 -7 3 -3 -35
-227 -44 -257 -5 -16 -22 -18 -170 -18 l-164 0 0 30 c0 24 5 31 28 36 15 3 50
12 77 18 l50 13 -35 22 c-41 25 -113 47 -189 56 -53 7 -54 7 -47 -16 4 -13 25
-94 48 -180 l41 -157 34 1 c41 1 72 -25 54 -46 -6 -8 -25 -20 -41 -27 -35 -15
-34 -8 -14 -163 11 -85 15 -168 11 -272 -3 -129 -8 -159 -29 -218 -43 -114
-95 -174 -190 -217 -86 -39 -227 -17 -258 39 -11 22 -13 71 -4 96 10 25 58 45
109 45 44 0 46 -1 64 -44 11 -24 26 -46 34 -49 27 -10 94 32 113 71 23 48 31
230 14 345 -12 88 -68 317 -124 514 -19 68 -38 142 -41 166 -11 72 -17 76 -71
47 -114 -60 -183 -137 -214 -239 -17 -55 -18 -56 -59 -59 -34 -3 -41 0 -41 15
0 30 54 135 99 191 49 61 157 144 219 168 30 12 41 21 38 33 -13 45 -27 221
-27 336 0 287 78 443 251 496 43 13 121 10 155 -7z m3080 -94 c0 -22 -29 -18
-33 3 -3 14 1 18 15 15 10 -2 18 -10 18 -18z m-4017 -243 c4 -21 -27 -35 -38
-17 -12 19 0 42 19 38 9 -2 17 -11 19 -21z m112 -157 c0 -5 -4 -10 -10 -10 -5
0 -10 5 -10 10 0 6 5 10 10 10 6 0 10 -4 10 -10z m1040 -161 c0 -24 -23 -21
-28 4 -2 10 3 17 12 17 10 0 16 -9 16 -21z m3284 -5 c19 -19 20 -26 4 -42 -18
-18 -46 -14 -58 7 -7 15 -6 23 6 35 19 20 29 20 48 0z m1321 -9 c0 -28 -29
-25 -33 3 -3 19 0 23 15 20 10 -2 18 -12 18 -23z m-5832 -25 c17 -28 17 -30
-3 -50 -27 -27 -56 -25 -76 5 -14 21 -15 31 -6 50 17 37 62 34 85 -5z m4264
-7 c11 -29 -19 -68 -52 -68 -24 0 -31 5 -33 23 -7 47 69 87 85 45z m-6860 -89
c13 -33 -35 -70 -59 -46 -6 6 -8 22 -4 36 5 19 13 26 32 26 14 0 27 -7 31 -16z
m1541 4 c-6 -18 -28 -21 -28 -4 0 9 7 16 16 16 9 0 14 -5 12 -12z m1367 -18
c0 -18 -6 -26 -23 -28 -13 -2 -25 3 -28 12 -10 26 4 48 28 44 17 -2 23 -10 23
-28z m243 -32 c-2 -13 -10 -23 -18 -23 -8 0 -16 10 -18 23 -3 17 2 22 18 22
16 0 21 -5 18 -22z m-1728 -12 c0 -8 -5 -18 -11 -22 -14 -8 -33 11 -25 25 10
16 36 13 36 -3z m2770 -106 l0 -120 -35 0 -35 0 0 120 0 120 35 0 35 0 0 -120z
m640 0 l0 -120 -35 0 -35 0 0 120 0 120 35 0 35 0 0 -120z m90 0 l0 -120 -35
0 -35 0 0 120 0 120 35 0 35 0 0 -120z m-340 85 c0 -8 5 -15 10 -15 6 0 10 -7
10 -15 0 -8 -4 -15 -10 -15 -6 0 -10 -28 -10 -65 0 -37 4 -65 10 -65 6 0 10
-7 10 -16 0 -12 -9 -14 -37 -12 l-38 3 -3 78 c-2 42 -7 77 -12 77 -6 0 -10 7
-10 15 0 8 5 15 10 15 6 0 10 7 10 15 0 10 10 15 30 15 20 0 30 -5 30 -15z
m-232 -112 l3 -93 -31 0 -30 0 0 81 c0 51 -4 78 -10 74 -5 -3 -10 -40 -10 -81
l0 -74 -30 0 -30 0 0 95 0 95 68 -3 67 -2 3 -92z m134 80 c26 -23 23 -53 -4
-53 l-22 0 22 -16 c29 -20 31 -79 3 -94 -47 -25 -111 -5 -111 35 0 33 42 35
58 3 9 -19 11 -20 11 -5 1 10 -14 26 -34 38 -42 25 -52 52 -31 84 20 30 79 34
108 8z m252 -5 c11 -15 16 -46 16 -96 l0 -73 -67 3 -68 3 0 40 c0 32 5 42 25
52 l25 13 -27 0 c-24 0 -28 4 -28 30 0 35 21 49 72 50 27 0 41 -6 52 -22z
m-544 -323 c0 -16 6 -25 15 -25 9 0 15 -9 15 -25 0 -16 -6 -25 -15 -25 -12 0
-15 -18 -15 -100 0 -80 3 -102 15 -106 8 -4 15 -17 15 -30 0 -22 -4 -24 -47
-24 -76 0 -83 13 -83 147 0 69 -4 113 -10 113 -5 0 -10 -10 -10 -23 0 -16 -9
-26 -30 -34 l-30 -11 0 -96 0 -96 -50 0 -50 0 0 160 0 160 50 0 c28 0 50 -5
50 -10 0 -7 7 -7 20 0 12 6 30 8 40 5 16 -5 20 -2 20 19 0 24 3 26 50 26 47 0
50 -2 50 -25z m-353 -39 c28 -24 28 -25 31 -160 l4 -136 -51 0 c-28 0 -51 5
-51 10 0 7 -6 7 -19 0 -58 -31 -111 4 -111 74 0 52 13 68 75 91 41 16 45 21
45 51 0 19 -4 34 -10 34 -5 0 -10 -16 -10 -35 l0 -35 -50 0 -50 0 0 36 c0 26
8 43 29 65 25 25 37 29 85 29 44 0 61 -5 83 -24z m582 9 c16 -8 34 -28 40 -46
19 -54 16 -59 -39 -59 -49 0 -50 1 -50 30 0 17 -4 30 -10 30 -6 0 -10 -40 -10
-100 0 -55 4 -100 9 -100 11 0 21 25 21 56 0 22 4 24 46 24 l47 0 -7 -42 c-9
-61 -51 -98 -112 -98 -58 0 -82 13 -100 55 -16 39 -19 171 -4 209 19 50 109
72 169 41z m262 -14 c28 -29 29 -32 29 -131 0 -99 -1 -102 -29 -131 -25 -25
-37 -29 -85 -29 -44 0 -61 5 -83 24 -25 22 -28 31 -32 107 -6 144 22 188 122
189 41 0 53 -5 78 -29z m169 19 c0 -7 6 -7 19 0 35 18 41 12 41 -43 0 -49 -2
-53 -30 -64 l-30 -11 0 -96 0 -96 -50 0 -50 0 0 160 0 160 50 0 c28 0 50 -5
50 -10z m277 -24 c18 -21 23 -39 23 -82 l0 -54 -60 0 -60 0 0 -45 c0 -53 16
-60 26 -10 6 34 8 35 50 35 l44 0 0 -39 c0 -32 -6 -44 -31 -65 -58 -49 -166
-28 -188 35 -16 45 -14 163 4 204 18 44 45 56 114 51 44 -2 59 -8 78 -30z
m3336 -168 c7 -23 -4 -38 -29 -38 -19 0 -24 5 -24 25 0 20 5 25 24 25 13 0 26
-6 29 -12z m-7465 -240 c19 -19 14 -30 -8 -18 -11 6 -20 15 -20 20 0 14 14 12
28 -2z m8029 -74 c9 -24 -10 -49 -38 -49 -27 0 -37 28 -19 50 17 20 49 19 57
-1z m-1542 -154 c9 -14 -3 -47 -20 -54 -21 -8 -58 26 -50 47 8 19 59 24 70 7z
m-70 -80 c7 -23 -10 -50 -31 -50 -17 0 -18 42 -2 58 17 17 26 15 33 -8z
m-3193 -45 c0 -5 -5 -11 -11 -13 -6 -2 -11 4 -11 13 0 9 5 15 11 13 6 -2 11
-8 11 -13z m-2542 -38 c0 -7 -4 -6 -10 3 -8 12 -10 12 -10 1 0 -8 -3 -12 -6
-8 -9 9 6 28 17 22 5 -4 9 -12 9 -18z m7106 -92 c7 -18 -13 -45 -33 -45 -17 0
-27 24 -19 45 7 20 45 19 52 0z m-5071 -216 c0 -7 -8 -15 -17 -17 -18 -3 -25
18 -11 32 10 10 28 1 28 -15z m-506 -40 c20 -19 21 -23 8 -42 -17 -26 -43 -33
-62 -17 -27 23 -12 80 20 80 6 0 21 -9 34 -21z m1008 -192 c-23 -36 -44 -44
-63 -25 -9 9 -14 24 -11 32 9 23 48 36 70 24 16 -8 17 -12 4 -31z m-2748 -192
c2 -13 -1 -16 -13 -12 -9 4 -16 1 -16 -5 0 -9 -3 -9 -12 0 -8 8 -8 15 2 27 16
19 34 15 39 -10z m459 -58 c3 -14 -1 -18 -20 -15 -12 2 -24 11 -26 21 -3 14 1
18 20 15 12 -2 24 -11 26 -21z m-673 -30 c21 -16 15 -32 -14 -40 -27 -7 -54
14 -45 36 7 20 33 22 59 4z m4313 -54 c-4 -22 -22 -20 -26 1 -2 10 3 16 13 16
10 0 15 -7 13 -17z m2440 5 c29 -29 -4 -76 -42 -62 -30 11 -13 74 19 74 6 0
16 -5 23 -12z m-1320 -240 c-2 -13 -11 -24 -20 -26 -21 -4 -24 18 -6 36 19 19
30 14 26 -10z m-1793 -78 c0 -22 -29 -18 -33 3 -3 14 1 18 15 15 10 -2 18 -10
18 -18z m-4033 -25 c0 -5 -5 -11 -11 -13 -6 -2 -11 4 -11 13 0 9 5 15 11 13 6
-2 11 -8 11 -13z m-492 -90 c11 -13 11 -20 0 -40 -26 -48 -80 -17 -57 32 12
26 39 30 57 8z m1090 -65 c0 -5 -5 -10 -11 -10 -5 0 -7 5 -4 10 3 6 8 10 11
10 2 0 4 -4 4 -10z m7387 -206 c9 -24 -10 -49 -38 -49 -24 0 -36 23 -25 51 7
19 55 18 63 -2z m-8407 -89 c0 -8 -4 -15 -8 -15 -5 0 -9 7 -9 15 0 8 4 15 9
15 4 0 8 -7 8 -15z m6245 -280 c0 -27 -3 -30 -30 -30 -21 0 -31 5 -33 18 -6
33 6 49 35 45 24 -3 28 -8 28 -33z"/>
<path d="M5285 3381 c-3 -5 -1 -12 5 -16 5 -3 10 1 10 9 0 18 -6 21 -15 7z"/>
<path d="M5532 3365 c0 -16 2 -22 5 -12 2 9 2 23 0 30 -3 6 -5 -1 -5 -18z"/>
<path d="M5532 3280 c0 -14 2 -19 5 -12 2 6 2 18 0 25 -3 6 -5 1 -5 -13z"/>
<path d="M4607 2873 c-11 -10 -8 -73 3 -73 6 0 10 18 10 40 0 41 -2 45 -13 33z"/>
<path d="M5450 2900 c0 -60 4 -100 10 -100 6 0 10 40 10 100 0 60 -4 100 -10
100 -6 0 -10 -40 -10 -100z"/>
<path d="M5890 2970 c0 -16 5 -30 10 -30 6 0 10 14 10 30 0 17 -4 30 -10 30
-5 0 -10 -13 -10 -30z"/>
<path d="M2755 1440 c-3 -5 -1 -10 4 -10 6 0 11 5 11 10 0 6 -2 10 -4 10 -3 0
-8 -4 -11 -10z"/>
<path d="M1185 920 c-3 -6 1 -7 9 -4 18 7 21 14 7 14 -6 0 -13 -4 -16 -10z"/>
</g>
</svg>
